<?xml version="1.0" encoding="UTF-8" standalone="no"?><svg xmlns="http://www.w3.org/2000/svg" xmlns:xlink="http://www.w3.org/1999/xlink" contentScriptType="application/ecmascript" contentStyleType="text/css" height="301px" preserveAspectRatio="none" style="width:258px;height:301px;" version="1.1" viewBox="0 0 258 301" width="258px" zoomAndPan="magnify"><defs><filter height="300%" id="fre6wtv6bt6wr" width="300%" x="-1" y="-1"><feGaussianBlur result="blurOut" stdDeviation="2.0"/><feColorMatrix in="blurOut" result="blurOut2" type="matrix" values="0 0 0 0 0 0 0 0 0 0 0 0 0 0 0 0 0 0 .4 0"/><feOffset dx="4.0" dy="4.0" in="blurOut2" result="blurOut3"/><feBlend in="SourceGraphic" in2="blurOut3" mode="normal"/></filter></defs><g><!--MD5=[f7835cdcdda3ca02b50e6ab63395f5c4]
class com.dxc.dcmp.invcontroller.domain.AbstractEntityModel--><a href="AbstractEntityModel.html" target="_top" title="AbstractEntityModel.html" xlink:actuate="onRequest" xlink:href="AbstractEntityModel.html" xlink:show="new" xlink:title="AbstractEntityModel.html" xlink:type="simple"><rect codeLine="5" fill="#FEFECE" filter="url(#fre6wtv6bt6wr)" height="263.7266" id="com.dxc.dcmp.invcontroller.domain.AbstractEntityModel" style="stroke: #A80036; stroke-width: 1.5;" width="232" x="7" y="7"/><ellipse cx="39.55" cy="27.0938" fill="#A9DCDF" rx="11" ry="11" style="stroke: #A80036; stroke-width: 1.0;"/><path d="M41.7375,28.8594 L37.5969,28.8594 L37.175,29.8906 L37.5969,29.8906 Q38.2063,29.8906 38.4719,30.125 Q38.7375,30.3594 38.7375,30.75 Q38.7375,31.125 38.4719,31.3594 Q38.2063,31.5938 37.5969,31.5938 L35.3,31.5938 Q34.6906,31.5938 34.4406,31.3594 Q34.175,31.125 34.175,30.7344 Q34.175,30.3594 34.4563,30.125 Q34.7219,29.875 35.3469,29.8906 L38.0188,23.2344 L36.9094,23.2344 Q36.3,23.2344 36.0344,23 Q35.7688,22.7656 35.7688,22.375 Q35.7688,22 36.0344,21.7656 Q36.3,21.5313 36.9094,21.5313 L40.5813,21.5313 L43.9719,29.8906 Q44.5656,29.8906 44.7531,30.0313 Q45.1438,30.2969 45.1438,30.75 Q45.1438,31.125 44.8781,31.3594 Q44.6281,31.5938 44.0188,31.5938 L41.7219,31.5938 Q41.1125,31.5938 40.8469,31.3594 Q40.5813,31.125 40.5813,30.7344 Q40.5813,30.3594 40.8469,30.125 Q41.1125,29.8906 41.7219,29.8906 L42.1438,29.8906 L41.7375,28.8594 Z M41.0188,27.1563 L39.6594,23.7813 L38.2844,27.1563 L41.0188,27.1563 Z "/><text fill="#000000" font-family="sans-serif" font-size="14" font-style="italic" lengthAdjust="spacingAndGlyphs" textLength="126" x="74.95" y="26.5332">AbstractEntityModel</text><text fill="#000000" font-family="sans-serif" font-size="10" font-style="italic" lengthAdjust="spacingAndGlyphs" textLength="161" x="57.45" y="39.9902">com.dxc.dcmp.invcontroller.domain</text><line style="stroke: #A80036; stroke-width: 1.5;" x1="8" x2="238" y1="47.1875" y2="47.1875"/><rect fill="none" height="6" style="stroke: #C82930; stroke-width: 1.0;" width="6" x="15" y="55.1875"/><text fill="#000000" font-family="sans-serif" font-size="11" lengthAdjust="spacingAndGlyphs" textLength="62" x="27" y="62.6064">version: long</text><rect fill="none" height="6" style="stroke: #C82930; stroke-width: 1.0;" width="6" x="15" y="69.0234"/><text fill="#000000" font-family="sans-serif" font-size="11" lengthAdjust="spacingAndGlyphs" textLength="97" x="27" y="76.4424">creationUser: String</text><rect fill="none" height="6" style="stroke: #C82930; stroke-width: 1.0;" width="6" x="15" y="82.8594"/><text fill="#000000" font-family="sans-serif" font-size="11" lengthAdjust="spacingAndGlyphs" textLength="145" x="27" y="90.2783">creationDate: OffsetDateTime</text><rect fill="none" height="6" style="stroke: #C82930; stroke-width: 1.0;" width="6" x="15" y="96.6953"/><text fill="#000000" font-family="sans-serif" font-size="11" lengthAdjust="spacingAndGlyphs" textLength="115" x="27" y="104.1143">modificationUser: String</text><rect fill="none" height="6" style="stroke: #C82930; stroke-width: 1.0;" width="6" x="15" y="110.5313"/><text fill="#000000" font-family="sans-serif" font-size="11" lengthAdjust="spacingAndGlyphs" textLength="163" x="27" y="117.9502">modificationDate: OffsetDateTime</text><line style="stroke: #A80036; stroke-width: 1.5;" x1="8" x2="238" y1="124.3672" y2="124.3672"/><ellipse cx="18" cy="135.3672" fill="#84BE84" rx="3" ry="3" style="stroke: #038048; stroke-width: 1.0;"/><text fill="#000000" font-family="sans-serif" font-size="11" lengthAdjust="spacingAndGlyphs" textLength="86" x="27" y="139.7861">getVersion(): long</text><ellipse cx="18" cy="149.2031" fill="#84BE84" rx="3" ry="3" style="stroke: #038048; stroke-width: 1.0;"/><text fill="#000000" font-family="sans-serif" font-size="11" lengthAdjust="spacingAndGlyphs" textLength="106" x="27" y="153.6221">setVersion(long): void</text><ellipse cx="18" cy="163.0391" fill="#84BE84" rx="3" ry="3" style="stroke: #038048; stroke-width: 1.0;"/><text fill="#000000" font-family="sans-serif" font-size="11" lengthAdjust="spacingAndGlyphs" textLength="122" x="27" y="167.458">getCreationUser(): String</text><ellipse cx="18" cy="176.875" fill="#84BE84" rx="3" ry="3" style="stroke: #038048; stroke-width: 1.0;"/><text fill="#000000" font-family="sans-serif" font-size="11" lengthAdjust="spacingAndGlyphs" textLength="142" x="27" y="181.2939">setCreationUser(String): void</text><ellipse cx="18" cy="190.7109" fill="#84BE84" rx="3" ry="3" style="stroke: #038048; stroke-width: 1.0;"/><text fill="#000000" font-family="sans-serif" font-size="11" lengthAdjust="spacingAndGlyphs" textLength="170" x="27" y="195.1299">getCreationDate(): OffsetDateTime</text><ellipse cx="18" cy="204.5469" fill="#84BE84" rx="3" ry="3" style="stroke: #038048; stroke-width: 1.0;"/><text fill="#000000" font-family="sans-serif" font-size="11" lengthAdjust="spacingAndGlyphs" textLength="190" x="27" y="208.9658">setCreationDate(OffsetDateTime): void</text><ellipse cx="18" cy="218.3828" fill="#84BE84" rx="3" ry="3" style="stroke: #038048; stroke-width: 1.0;"/><text fill="#000000" font-family="sans-serif" font-size="11" lengthAdjust="spacingAndGlyphs" textLength="138" x="27" y="222.8018">getModificationUser(): String</text><ellipse cx="18" cy="232.2188" fill="#84BE84" rx="3" ry="3" style="stroke: #038048; stroke-width: 1.0;"/><text fill="#000000" font-family="sans-serif" font-size="11" lengthAdjust="spacingAndGlyphs" textLength="158" x="27" y="236.6377">setModificationUser(String): void</text><ellipse cx="18" cy="246.0547" fill="#84BE84" rx="3" ry="3" style="stroke: #038048; stroke-width: 1.0;"/><text fill="#000000" font-family="sans-serif" font-size="11" lengthAdjust="spacingAndGlyphs" textLength="186" x="27" y="250.4736">getModificationDate(): OffsetDateTime</text><ellipse cx="18" cy="259.8906" fill="#84BE84" rx="3" ry="3" style="stroke: #038048; stroke-width: 1.0;"/><text fill="#000000" font-family="sans-serif" font-size="11" lengthAdjust="spacingAndGlyphs" textLength="206" x="27" y="264.3096">setModificationDate(OffsetDateTime): void</text></a><text fill="#888888" font-family="sans-serif" font-size="10" lengthAdjust="spacingAndGlyphs" textLength="185" x="30.5" y="288.1074">UMLDoclet 2.0.12, PlantUML 1.2020.16</text><!--MD5=[13417b68a28c51265f0cfe1dac8f785f]
@startuml
    set namespaceSeparator none
    hide empty fields
    hide empty methods

    abstract class "<size:14>AbstractEntityModel\n<size:10>com.dxc.dcmp.invcontroller.domain" as com.dxc.dcmp.invcontroller.domain.AbstractEntityModel [[AbstractEntityModel.html]] {
        -version: long
        -creationUser: String
        -creationDate: OffsetDateTime
        -modificationUser: String
        -modificationDate: OffsetDateTime
        +getVersion(): long
        +setVersion(long): void
        +getCreationUser(): String
        +setCreationUser(String): void
        +getCreationDate(): OffsetDateTime
        +setCreationDate(OffsetDateTime): void
        +getModificationUser(): String
        +setModificationUser(String): void
        +getModificationDate(): OffsetDateTime
        +setModificationDate(OffsetDateTime): void
    }

    center footer UMLDoclet 2.0.12, PlantUML 1.2020.16
@enduml

PlantUML version 1.2020.16(Sun Aug 23 22:20:43 EET 2020)
(APACHE source distribution)
Java Runtime: OpenJDK Runtime Environment
JVM: OpenJDK 64-Bit Server VM
Default Encoding: Cp1252
Language: en
Country: US
--></g></svg>