<?xml version="1.0" encoding="UTF-8" standalone="no"?><svg xmlns="http://www.w3.org/2000/svg" xmlns:xlink="http://www.w3.org/1999/xlink" contentScriptType="application/ecmascript" contentStyleType="text/css" height="443px" preserveAspectRatio="none" style="width:447px;height:443px;" version="1.1" viewBox="0 0 447 443" width="447px" zoomAndPan="magnify"><defs><filter height="300%" id="ftmmkzbrm43ez" width="300%" x="-1" y="-1"><feGaussianBlur result="blurOut" stdDeviation="2.0"/><feColorMatrix in="blurOut" result="blurOut2" type="matrix" values="0 0 0 0 0 0 0 0 0 0 0 0 0 0 0 0 0 0 .4 0"/><feOffset dx="4.0" dy="4.0" in="blurOut2" result="blurOut3"/><feBlend in="SourceGraphic" in2="blurOut3" mode="normal"/></filter></defs><g><!--MD5=[e5702ab12888352019a6fcff8e3d6983]
class com.dxc.dcmp.invcontroller.domain.BuyerModel--><a href="BuyerModel.html" target="_top" title="BuyerModel.html" xlink:actuate="onRequest" xlink:href="BuyerModel.html" xlink:show="new" xlink:title="BuyerModel.html" xlink:type="simple"><rect codeLine="5" fill="#FEFECE" filter="url(#ftmmkzbrm43ez)" height="263.7266" id="com.dxc.dcmp.invcontroller.domain.BuyerModel" style="stroke: #A80036; stroke-width: 1.5;" width="210" x="112.5" y="143"/><ellipse cx="135.15" cy="163.0938" fill="#ADD1B2" rx="11" ry="11" style="stroke: #A80036; stroke-width: 1.0;"/><path d="M137.9156,158.9688 Q138.0719,158.75 138.2594,158.6406 Q138.4469,158.5313 138.6656,158.5313 Q139.0406,158.5313 139.275,158.7969 Q139.5094,159.0469 139.5094,159.6563 L139.5094,161.1094 Q139.5094,161.7188 139.275,161.9844 Q139.0406,162.25 138.6656,162.25 Q138.3219,162.25 138.1188,162.0469 Q137.9156,161.8594 137.8063,161.3438 Q137.7594,160.9844 137.5719,160.7969 Q137.2438,160.4219 136.6344,160.2031 Q136.025,159.9844 135.4,159.9844 Q134.6344,159.9844 133.9938,160.3125 Q133.3688,160.6406 132.8688,161.3906 Q132.3844,162.1406 132.3844,163.1719 L132.3844,164.2656 Q132.3844,165.5 133.275,166.3281 Q134.1656,167.1406 135.7594,167.1406 Q136.6969,167.1406 137.3531,166.8906 Q137.7438,166.7344 138.1656,166.2969 Q138.4313,166.0313 138.5719,165.9531 Q138.7281,165.875 138.9313,165.875 Q139.2594,165.875 139.5094,166.1406 Q139.775,166.3906 139.775,166.7344 Q139.775,167.0781 139.4313,167.4844 Q138.9313,168.0625 138.1344,168.3906 Q137.0563,168.8438 135.7594,168.8438 Q134.2438,168.8438 133.0406,168.2188 Q132.0563,167.7188 131.3688,166.6563 Q130.6813,165.5781 130.6813,164.2969 L130.6813,163.1406 Q130.6813,161.8125 131.2906,160.6719 Q131.9156,159.5156 133.0094,158.9063 Q134.1031,158.2813 135.3375,158.2813 Q136.0719,158.2813 136.7125,158.4531 Q137.3688,158.6094 137.9156,158.9688 Z "/><text fill="#000000" font-family="sans-serif" font-size="14" lengthAdjust="spacingAndGlyphs" textLength="76" x="193.35" y="162.5332">BuyerModel</text><text fill="#000000" font-family="sans-serif" font-size="10" lengthAdjust="spacingAndGlyphs" textLength="161" x="150.85" y="175.9902">com.dxc.dcmp.invcontroller.domain</text><line style="stroke: #A80036; stroke-width: 1.5;" x1="113.5" x2="321.5" y1="183.1875" y2="183.1875"/><rect fill="none" height="6" style="stroke: #C82930; stroke-width: 1.0;" width="6" x="120.5" y="191.1875"/><text fill="#000000" font-family="sans-serif" font-size="11" lengthAdjust="spacingAndGlyphs" textLength="38" x="132.5" y="198.6064">id: Long</text><rect fill="none" height="6" style="stroke: #C82930; stroke-width: 1.0;" width="6" x="120.5" y="205.0234"/><text fill="#000000" font-family="sans-serif" font-size="11" lengthAdjust="spacingAndGlyphs" textLength="139" x="132.5" y="212.4424">numberOfTransactions: long</text><rect fill="none" height="6" style="stroke: #C82930; stroke-width: 1.0;" width="6" x="120.5" y="218.8594"/><text fill="#000000" font-family="sans-serif" font-size="11" lengthAdjust="spacingAndGlyphs" textLength="87" x="132.5" y="226.2783">buyerType: String</text><rect fill="none" height="6" style="stroke: #C82930; stroke-width: 1.0;" width="6" x="120.5" y="232.6953"/><text fill="#000000" font-family="sans-serif" font-size="11" lengthAdjust="spacingAndGlyphs" textLength="103" x="132.5" y="240.1143">buyerIdentifier: String</text><rect fill="none" height="6" style="stroke: #C82930; stroke-width: 1.0;" width="6" x="120.5" y="246.5313"/><text fill="#000000" font-family="sans-serif" font-size="11" lengthAdjust="spacingAndGlyphs" textLength="92" x="132.5" y="253.9502">payer: PayerModel</text><line style="stroke: #A80036; stroke-width: 1.5;" x1="113.5" x2="321.5" y1="260.3672" y2="260.3672"/><ellipse cx="123.5" cy="271.3672" fill="#84BE84" rx="3" ry="3" style="stroke: #038048; stroke-width: 1.0;"/><text fill="#000000" font-family="sans-serif" font-size="11" lengthAdjust="spacingAndGlyphs" textLength="164" x="132.5" y="275.7861">getNumberOfTransactions(): long</text><ellipse cx="123.5" cy="285.2031" fill="#84BE84" rx="3" ry="3" style="stroke: #038048; stroke-width: 1.0;"/><text fill="#000000" font-family="sans-serif" font-size="11" lengthAdjust="spacingAndGlyphs" textLength="184" x="132.5" y="289.6221">setNumberOfTransactions(long): void</text><ellipse cx="123.5" cy="299.0391" fill="#84BE84" rx="3" ry="3" style="stroke: #038048; stroke-width: 1.0;"/><text fill="#000000" font-family="sans-serif" font-size="11" lengthAdjust="spacingAndGlyphs" textLength="62" x="132.5" y="303.458">getId(): Long</text><ellipse cx="123.5" cy="312.875" fill="#84BE84" rx="3" ry="3" style="stroke: #038048; stroke-width: 1.0;"/><text fill="#000000" font-family="sans-serif" font-size="11" lengthAdjust="spacingAndGlyphs" textLength="82" x="132.5" y="317.2939">setId(Long): void</text><ellipse cx="123.5" cy="326.7109" fill="#84BE84" rx="3" ry="3" style="stroke: #038048; stroke-width: 1.0;"/><text fill="#000000" font-family="sans-serif" font-size="11" lengthAdjust="spacingAndGlyphs" textLength="111" x="132.5" y="331.1299">getBuyerType(): String</text><ellipse cx="123.5" cy="340.5469" fill="#84BE84" rx="3" ry="3" style="stroke: #038048; stroke-width: 1.0;"/><text fill="#000000" font-family="sans-serif" font-size="11" lengthAdjust="spacingAndGlyphs" textLength="131" x="132.5" y="344.9658">setBuyerType(String): void</text><ellipse cx="123.5" cy="354.3828" fill="#84BE84" rx="3" ry="3" style="stroke: #038048; stroke-width: 1.0;"/><text fill="#000000" font-family="sans-serif" font-size="11" lengthAdjust="spacingAndGlyphs" textLength="127" x="132.5" y="358.8018">getBuyerIdentifier(): String</text><ellipse cx="123.5" cy="368.2188" fill="#84BE84" rx="3" ry="3" style="stroke: #038048; stroke-width: 1.0;"/><text fill="#000000" font-family="sans-serif" font-size="11" lengthAdjust="spacingAndGlyphs" textLength="147" x="132.5" y="372.6377">setBuyerIdentifier(String): void</text><ellipse cx="123.5" cy="382.0547" fill="#84BE84" rx="3" ry="3" style="stroke: #038048; stroke-width: 1.0;"/><text fill="#000000" font-family="sans-serif" font-size="11" lengthAdjust="spacingAndGlyphs" textLength="116" x="132.5" y="386.4736">getPayer(): PayerModel</text><ellipse cx="123.5" cy="395.8906" fill="#84BE84" rx="3" ry="3" style="stroke: #038048; stroke-width: 1.0;"/><text fill="#000000" font-family="sans-serif" font-size="11" lengthAdjust="spacingAndGlyphs" textLength="136" x="132.5" y="400.3096">setPayer(PayerModel): void</text></a><!--MD5=[f7835cdcdda3ca02b50e6ab63395f5c4]
class com.dxc.dcmp.invcontroller.domain.AbstractEntityModel--><a href="AbstractEntityModel.html" target="_top" title="AbstractEntityModel.html" xlink:actuate="onRequest" xlink:href="AbstractEntityModel.html" xlink:show="new" xlink:title="AbstractEntityModel.html" xlink:type="simple"><rect codeLine="23" fill="#FEFECE" filter="url(#ftmmkzbrm43ez)" height="40.1875" id="com.dxc.dcmp.invcontroller.domain.AbstractEntityModel" style="stroke: #A80036; stroke-width: 1.5;" width="193" x="7" y="25"/><ellipse cx="22" cy="45.0938" fill="#A9DCDF" rx="11" ry="11" style="stroke: #A80036; stroke-width: 1.0;"/><path d="M24.1875,46.8594 L20.0469,46.8594 L19.625,47.8906 L20.0469,47.8906 Q20.6563,47.8906 20.9219,48.125 Q21.1875,48.3594 21.1875,48.75 Q21.1875,49.125 20.9219,49.3594 Q20.6563,49.5938 20.0469,49.5938 L17.75,49.5938 Q17.1406,49.5938 16.8906,49.3594 Q16.625,49.125 16.625,48.7344 Q16.625,48.3594 16.9063,48.125 Q17.1719,47.875 17.7969,47.8906 L20.4688,41.2344 L19.3594,41.2344 Q18.75,41.2344 18.4844,41 Q18.2188,40.7656 18.2188,40.375 Q18.2188,40 18.4844,39.7656 Q18.75,39.5313 19.3594,39.5313 L23.0313,39.5313 L26.4219,47.8906 Q27.0156,47.8906 27.2031,48.0313 Q27.5938,48.2969 27.5938,48.75 Q27.5938,49.125 27.3281,49.3594 Q27.0781,49.5938 26.4688,49.5938 L24.1719,49.5938 Q23.5625,49.5938 23.2969,49.3594 Q23.0313,49.125 23.0313,48.7344 Q23.0313,48.3594 23.2969,48.125 Q23.5625,47.8906 24.1719,47.8906 L24.5938,47.8906 L24.1875,46.8594 Z M23.4688,45.1563 L22.1094,41.7813 L20.7344,45.1563 L23.4688,45.1563 Z "/><text fill="#000000" font-family="sans-serif" font-size="14" font-style="italic" lengthAdjust="spacingAndGlyphs" textLength="126" x="53.5" y="44.5332">AbstractEntityModel</text><text fill="#000000" font-family="sans-serif" font-size="10" font-style="italic" lengthAdjust="spacingAndGlyphs" textLength="161" x="36" y="57.9902">com.dxc.dcmp.invcontroller.domain</text></a><!--MD5=[508a5fb2974ab154d77133528b719e45]
class com.dxc.dcmp.invcontroller.domain.Identifiable--><a href="Identifiable.html" target="_top" title="Identifiable.html" xlink:actuate="onRequest" xlink:href="Identifiable.html" xlink:show="new" xlink:title="Identifiable.html" xlink:type="simple"><rect codeLine="24" fill="#FEFECE" filter="url(#ftmmkzbrm43ez)" height="75.8594" id="com.dxc.dcmp.invcontroller.domain.Identifiable" style="stroke: #A80036; stroke-width: 1.5;" width="193" x="235" y="7"/><ellipse cx="250" cy="27.0938" fill="#B4A7E5" rx="11" ry="11" style="stroke: #A80036; stroke-width: 1.0;"/><path d="M250.9531,23.7344 L250.9531,30.3906 L252.6719,30.3906 Q253.2813,30.3906 253.5469,30.625 Q253.8125,30.8594 253.8125,31.25 Q253.8125,31.625 253.5469,31.8594 Q253.2813,32.0938 252.6719,32.0938 L247.5313,32.0938 Q246.9219,32.0938 246.6563,31.8594 Q246.3906,31.625 246.3906,31.2344 Q246.3906,30.8594 246.6563,30.625 Q246.9219,30.3906 247.5313,30.3906 L249.25,30.3906 L249.25,23.7344 L247.5313,23.7344 Q246.9219,23.7344 246.6563,23.5 Q246.3906,23.2656 246.3906,22.875 Q246.3906,22.5 246.6563,22.2656 Q246.9219,22.0313 247.5313,22.0313 L252.6719,22.0313 Q253.2813,22.0313 253.5469,22.2656 Q253.8125,22.5 253.8125,22.875 Q253.8125,23.2656 253.5469,23.5 Q253.2813,23.7344 252.6719,23.7344 L250.9531,23.7344 Z "/><text fill="#000000" font-family="sans-serif" font-size="14" font-style="italic" lengthAdjust="spacingAndGlyphs" textLength="69" x="310" y="26.5332">Identifiable</text><text fill="#000000" font-family="sans-serif" font-size="10" font-style="italic" lengthAdjust="spacingAndGlyphs" textLength="161" x="264" y="39.9902">com.dxc.dcmp.invcontroller.domain</text><line style="stroke: #A80036; stroke-width: 1.5;" x1="236" x2="427" y1="47.1875" y2="47.1875"/><ellipse cx="246" cy="58.1875" fill="#84BE84" rx="3" ry="3" style="stroke: #038048; stroke-width: 1.0;"/><text fill="#000000" font-family="sans-serif" font-size="11" font-style="italic" lengthAdjust="spacingAndGlyphs" textLength="62" x="255" y="62.6064">getId(): Long</text><ellipse cx="246" cy="72.0234" fill="#84BE84" rx="3" ry="3" style="stroke: #038048; stroke-width: 1.0;"/><text fill="#000000" font-family="sans-serif" font-size="11" font-style="italic" lengthAdjust="spacingAndGlyphs" textLength="82" x="255" y="76.4424">setId(Long): void</text></a><!--MD5=[339495ccd2a6137215953076455da02f]
reverse link com.dxc.dcmp.invcontroller.domain.AbstractEntityModel to com.dxc.dcmp.invcontroller.domain.BuyerModel--><path codeLine="29" d="M122,83.01 C130.44,99.88 140.99,120.98 151.97,142.94 " fill="none" id="com.dxc.dcmp.invcontroller.domain.AbstractEntityModel-backto-com.dxc.dcmp.invcontroller.domain.BuyerModel" style="stroke: #A80036; stroke-width: 1.0;"/><polygon fill="none" points="115.71,86.07,113.02,65.05,128.23,79.81,115.71,86.07" style="stroke: #A80036; stroke-width: 1.0;"/><!--MD5=[9a5b55187de008e1cd3dc40b4267b6a4]
reverse link com.dxc.dcmp.invcontroller.domain.Identifiable to com.dxc.dcmp.invcontroller.domain.BuyerModel--><path codeLine="30" d="M303.83,101.34 C297.45,114.09 290.4,128.19 283.16,142.67 " fill="none" id="com.dxc.dcmp.invcontroller.domain.Identifiable-backto-com.dxc.dcmp.invcontroller.domain.BuyerModel" style="stroke: #A80036; stroke-width: 1.0; stroke-dasharray: 7.0,7.0;"/><polygon fill="none" points="297.72,97.9,312.93,83.14,310.25,104.16,297.72,97.9" style="stroke: #A80036; stroke-width: 1.0;"/><text fill="#888888" font-family="sans-serif" font-size="10" lengthAdjust="spacingAndGlyphs" textLength="185" x="122" y="430.1074">UMLDoclet 2.0.12, PlantUML 1.2020.16</text><!--MD5=[2b0831b220ee21ba3ec169468e42019d]
@startuml
    set namespaceSeparator none
    hide empty fields
    hide empty methods

    class "<size:14>BuyerModel\n<size:10>com.dxc.dcmp.invcontroller.domain" as com.dxc.dcmp.invcontroller.domain.BuyerModel [[BuyerModel.html]] {
        -id: Long
        -numberOfTransactions: long
        -buyerType: String
        -buyerIdentifier: String
        -payer: PayerModel
        +getNumberOfTransactions(): long
        +setNumberOfTransactions(long): void
        +getId(): Long
        +setId(Long): void
        +getBuyerType(): String
        +setBuyerType(String): void
        +getBuyerIdentifier(): String
        +setBuyerIdentifier(String): void
        +getPayer(): PayerModel
        +setPayer(PayerModel): void
    }

    abstract class "<size:14>AbstractEntityModel\n<size:10>com.dxc.dcmp.invcontroller.domain" as com.dxc.dcmp.invcontroller.domain.AbstractEntityModel [[AbstractEntityModel.html]]
    interface "<size:14>Identifiable\n<size:10>com.dxc.dcmp.invcontroller.domain" as com.dxc.dcmp.invcontroller.domain.Identifiable [[Identifiable.html]] {
        {abstract} +getId(): Long
        {abstract} +setId(Long): void
    }

    com.dxc.dcmp.invcontroller.domain.AbstractEntityModel <|- - com.dxc.dcmp.invcontroller.domain.BuyerModel
    com.dxc.dcmp.invcontroller.domain.Identifiable <|.. com.dxc.dcmp.invcontroller.domain.BuyerModel

    center footer UMLDoclet 2.0.12, PlantUML 1.2020.16
@enduml

PlantUML version 1.2020.16(Sun Aug 23 22:20:43 EET 2020)
(APACHE source distribution)
Java Runtime: OpenJDK Runtime Environment
JVM: OpenJDK 64-Bit Server VM
Default Encoding: Cp1252
Language: en
Country: US
--></g></svg>