<?xml version="1.0" encoding="UTF-8" standalone="no"?><svg xmlns="http://www.w3.org/2000/svg" xmlns:xlink="http://www.w3.org/1999/xlink" contentScriptType="application/ecmascript" contentStyleType="text/css" height="443px" preserveAspectRatio="none" style="width:447px;height:443px;" version="1.1" viewBox="0 0 447 443" width="447px" zoomAndPan="magnify"><defs><filter height="300%" id="f4hh3zd9wyz52" width="300%" x="-1" y="-1"><feGaussianBlur result="blurOut" stdDeviation="2.0"/><feColorMatrix in="blurOut" result="blurOut2" type="matrix" values="0 0 0 0 0 0 0 0 0 0 0 0 0 0 0 0 0 0 .4 0"/><feOffset dx="4.0" dy="4.0" in="blurOut2" result="blurOut3"/><feBlend in="SourceGraphic" in2="blurOut3" mode="normal"/></filter></defs><g><!--MD5=[b17b6e57cc0a350f513bd44b9a7ec96d]
class com.dxc.dcmp.invcontroller.domain.InvoiceRunActionLogModel--><a href="InvoiceRunActionLogModel.html" target="_top" title="InvoiceRunActionLogModel.html" xlink:actuate="onRequest" xlink:href="InvoiceRunActionLogModel.html" xlink:show="new" xlink:title="InvoiceRunActionLogModel.html" xlink:type="simple"><rect codeLine="5" fill="#FEFECE" filter="url(#f4hh3zd9wyz52)" height="263.7266" id="com.dxc.dcmp.invcontroller.domain.InvoiceRunActionLogModel" style="stroke: #A80036; stroke-width: 1.5;" width="229" x="103" y="143"/><ellipse cx="128.8" cy="163.0938" fill="#ADD1B2" rx="11" ry="11" style="stroke: #A80036; stroke-width: 1.0;"/><path d="M131.5656,158.9688 Q131.7219,158.75 131.9094,158.6406 Q132.0969,158.5313 132.3156,158.5313 Q132.6906,158.5313 132.925,158.7969 Q133.1594,159.0469 133.1594,159.6563 L133.1594,161.1094 Q133.1594,161.7188 132.925,161.9844 Q132.6906,162.25 132.3156,162.25 Q131.9719,162.25 131.7688,162.0469 Q131.5656,161.8594 131.4563,161.3438 Q131.4094,160.9844 131.2219,160.7969 Q130.8938,160.4219 130.2844,160.2031 Q129.675,159.9844 129.05,159.9844 Q128.2844,159.9844 127.6438,160.3125 Q127.0188,160.6406 126.5188,161.3906 Q126.0344,162.1406 126.0344,163.1719 L126.0344,164.2656 Q126.0344,165.5 126.925,166.3281 Q127.8156,167.1406 129.4094,167.1406 Q130.3469,167.1406 131.0031,166.8906 Q131.3938,166.7344 131.8156,166.2969 Q132.0813,166.0313 132.2219,165.9531 Q132.3781,165.875 132.5813,165.875 Q132.9094,165.875 133.1594,166.1406 Q133.425,166.3906 133.425,166.7344 Q133.425,167.0781 133.0813,167.4844 Q132.5813,168.0625 131.7844,168.3906 Q130.7063,168.8438 129.4094,168.8438 Q127.8938,168.8438 126.6906,168.2188 Q125.7063,167.7188 125.0188,166.6563 Q124.3313,165.5781 124.3313,164.2969 L124.3313,163.1406 Q124.3313,161.8125 124.9406,160.6719 Q125.5656,159.5156 126.6594,158.9063 Q127.7531,158.2813 128.9875,158.2813 Q129.7219,158.2813 130.3625,158.4531 Q131.0188,158.6094 131.5656,158.9688 Z "/><text fill="#000000" font-family="sans-serif" font-size="14" lengthAdjust="spacingAndGlyphs" textLength="173" x="145.2" y="162.5332">InvoiceRunActionLogModel</text><text fill="#000000" font-family="sans-serif" font-size="10" lengthAdjust="spacingAndGlyphs" textLength="161" x="151.2" y="175.9902">com.dxc.dcmp.invcontroller.domain</text><line style="stroke: #A80036; stroke-width: 1.5;" x1="104" x2="331" y1="183.1875" y2="183.1875"/><rect fill="none" height="6" style="stroke: #C82930; stroke-width: 1.0;" width="6" x="111" y="191.1875"/><text fill="#000000" font-family="sans-serif" font-size="11" lengthAdjust="spacingAndGlyphs" textLength="38" x="123" y="198.6064">id: Long</text><rect fill="none" height="6" style="stroke: #C82930; stroke-width: 1.0;" width="6" x="111" y="205.0234"/><text fill="#000000" font-family="sans-serif" font-size="11" lengthAdjust="spacingAndGlyphs" textLength="159" x="123" y="212.4424">actionDateTime: OffsetDateTime</text><rect fill="none" height="6" style="stroke: #C82930; stroke-width: 1.0;" width="6" x="111" y="218.8594"/><text fill="#000000" font-family="sans-serif" font-size="11" lengthAdjust="spacingAndGlyphs" textLength="92" x="123" y="226.2783">actionName: String</text><rect fill="none" height="6" style="stroke: #C82930; stroke-width: 1.0;" width="6" x="111" y="232.6953"/><text fill="#000000" font-family="sans-serif" font-size="11" lengthAdjust="spacingAndGlyphs" textLength="65" x="123" y="240.1143">details: String</text><rect fill="none" height="6" style="stroke: #C82930; stroke-width: 1.0;" width="6" x="111" y="246.5313"/><text fill="#000000" font-family="sans-serif" font-size="11" lengthAdjust="spacingAndGlyphs" textLength="144" x="123" y="253.9502">invoiceRun: InvoiceRunModel</text><line style="stroke: #A80036; stroke-width: 1.5;" x1="104" x2="331" y1="260.3672" y2="260.3672"/><ellipse cx="114" cy="271.3672" fill="#84BE84" rx="3" ry="3" style="stroke: #038048; stroke-width: 1.0;"/><text fill="#000000" font-family="sans-serif" font-size="11" lengthAdjust="spacingAndGlyphs" textLength="62" x="123" y="275.7861">getId(): Long</text><ellipse cx="114" cy="285.2031" fill="#84BE84" rx="3" ry="3" style="stroke: #038048; stroke-width: 1.0;"/><text fill="#000000" font-family="sans-serif" font-size="11" lengthAdjust="spacingAndGlyphs" textLength="82" x="123" y="289.6221">setId(Long): void</text><ellipse cx="114" cy="299.0391" fill="#84BE84" rx="3" ry="3" style="stroke: #038048; stroke-width: 1.0;"/><text fill="#000000" font-family="sans-serif" font-size="11" lengthAdjust="spacingAndGlyphs" textLength="183" x="123" y="303.458">getActionDateTime(): OffsetDateTime</text><ellipse cx="114" cy="312.875" fill="#84BE84" rx="3" ry="3" style="stroke: #038048; stroke-width: 1.0;"/><text fill="#000000" font-family="sans-serif" font-size="11" lengthAdjust="spacingAndGlyphs" textLength="203" x="123" y="317.2939">setActionDateTime(OffsetDateTime): void</text><ellipse cx="114" cy="326.7109" fill="#84BE84" rx="3" ry="3" style="stroke: #038048; stroke-width: 1.0;"/><text fill="#000000" font-family="sans-serif" font-size="11" lengthAdjust="spacingAndGlyphs" textLength="116" x="123" y="331.1299">getActionName(): String</text><ellipse cx="114" cy="340.5469" fill="#84BE84" rx="3" ry="3" style="stroke: #038048; stroke-width: 1.0;"/><text fill="#000000" font-family="sans-serif" font-size="11" lengthAdjust="spacingAndGlyphs" textLength="136" x="123" y="344.9658">setActionName(String): void</text><ellipse cx="114" cy="354.3828" fill="#84BE84" rx="3" ry="3" style="stroke: #038048; stroke-width: 1.0;"/><text fill="#000000" font-family="sans-serif" font-size="11" lengthAdjust="spacingAndGlyphs" textLength="90" x="123" y="358.8018">getDetails(): String</text><ellipse cx="114" cy="368.2188" fill="#84BE84" rx="3" ry="3" style="stroke: #038048; stroke-width: 1.0;"/><text fill="#000000" font-family="sans-serif" font-size="11" lengthAdjust="spacingAndGlyphs" textLength="110" x="123" y="372.6377">setDetails(String): void</text><ellipse cx="114" cy="382.0547" fill="#84BE84" rx="3" ry="3" style="stroke: #038048; stroke-width: 1.0;"/><text fill="#000000" font-family="sans-serif" font-size="11" lengthAdjust="spacingAndGlyphs" textLength="168" x="123" y="386.4736">getInvoiceRun(): InvoiceRunModel</text><ellipse cx="114" cy="395.8906" fill="#84BE84" rx="3" ry="3" style="stroke: #038048; stroke-width: 1.0;"/><text fill="#000000" font-family="sans-serif" font-size="11" lengthAdjust="spacingAndGlyphs" textLength="188" x="123" y="400.3096">setInvoiceRun(InvoiceRunModel): void</text></a><!--MD5=[f7835cdcdda3ca02b50e6ab63395f5c4]
class com.dxc.dcmp.invcontroller.domain.AbstractEntityModel--><a href="AbstractEntityModel.html" target="_top" title="AbstractEntityModel.html" xlink:actuate="onRequest" xlink:href="AbstractEntityModel.html" xlink:show="new" xlink:title="AbstractEntityModel.html" xlink:type="simple"><rect codeLine="23" fill="#FEFECE" filter="url(#f4hh3zd9wyz52)" height="40.1875" id="com.dxc.dcmp.invcontroller.domain.AbstractEntityModel" style="stroke: #A80036; stroke-width: 1.5;" width="193" x="7" y="25"/><ellipse cx="22" cy="45.0938" fill="#A9DCDF" rx="11" ry="11" style="stroke: #A80036; stroke-width: 1.0;"/><path d="M24.1875,46.8594 L20.0469,46.8594 L19.625,47.8906 L20.0469,47.8906 Q20.6563,47.8906 20.9219,48.125 Q21.1875,48.3594 21.1875,48.75 Q21.1875,49.125 20.9219,49.3594 Q20.6563,49.5938 20.0469,49.5938 L17.75,49.5938 Q17.1406,49.5938 16.8906,49.3594 Q16.625,49.125 16.625,48.7344 Q16.625,48.3594 16.9063,48.125 Q17.1719,47.875 17.7969,47.8906 L20.4688,41.2344 L19.3594,41.2344 Q18.75,41.2344 18.4844,41 Q18.2188,40.7656 18.2188,40.375 Q18.2188,40 18.4844,39.7656 Q18.75,39.5313 19.3594,39.5313 L23.0313,39.5313 L26.4219,47.8906 Q27.0156,47.8906 27.2031,48.0313 Q27.5938,48.2969 27.5938,48.75 Q27.5938,49.125 27.3281,49.3594 Q27.0781,49.5938 26.4688,49.5938 L24.1719,49.5938 Q23.5625,49.5938 23.2969,49.3594 Q23.0313,49.125 23.0313,48.7344 Q23.0313,48.3594 23.2969,48.125 Q23.5625,47.8906 24.1719,47.8906 L24.5938,47.8906 L24.1875,46.8594 Z M23.4688,45.1563 L22.1094,41.7813 L20.7344,45.1563 L23.4688,45.1563 Z "/><text fill="#000000" font-family="sans-serif" font-size="14" font-style="italic" lengthAdjust="spacingAndGlyphs" textLength="126" x="53.5" y="44.5332">AbstractEntityModel</text><text fill="#000000" font-family="sans-serif" font-size="10" font-style="italic" lengthAdjust="spacingAndGlyphs" textLength="161" x="36" y="57.9902">com.dxc.dcmp.invcontroller.domain</text></a><!--MD5=[508a5fb2974ab154d77133528b719e45]
class com.dxc.dcmp.invcontroller.domain.Identifiable--><a href="Identifiable.html" target="_top" title="Identifiable.html" xlink:actuate="onRequest" xlink:href="Identifiable.html" xlink:show="new" xlink:title="Identifiable.html" xlink:type="simple"><rect codeLine="24" fill="#FEFECE" filter="url(#f4hh3zd9wyz52)" height="75.8594" id="com.dxc.dcmp.invcontroller.domain.Identifiable" style="stroke: #A80036; stroke-width: 1.5;" width="193" x="235" y="7"/><ellipse cx="250" cy="27.0938" fill="#B4A7E5" rx="11" ry="11" style="stroke: #A80036; stroke-width: 1.0;"/><path d="M250.9531,23.7344 L250.9531,30.3906 L252.6719,30.3906 Q253.2813,30.3906 253.5469,30.625 Q253.8125,30.8594 253.8125,31.25 Q253.8125,31.625 253.5469,31.8594 Q253.2813,32.0938 252.6719,32.0938 L247.5313,32.0938 Q246.9219,32.0938 246.6563,31.8594 Q246.3906,31.625 246.3906,31.2344 Q246.3906,30.8594 246.6563,30.625 Q246.9219,30.3906 247.5313,30.3906 L249.25,30.3906 L249.25,23.7344 L247.5313,23.7344 Q246.9219,23.7344 246.6563,23.5 Q246.3906,23.2656 246.3906,22.875 Q246.3906,22.5 246.6563,22.2656 Q246.9219,22.0313 247.5313,22.0313 L252.6719,22.0313 Q253.2813,22.0313 253.5469,22.2656 Q253.8125,22.5 253.8125,22.875 Q253.8125,23.2656 253.5469,23.5 Q253.2813,23.7344 252.6719,23.7344 L250.9531,23.7344 Z "/><text fill="#000000" font-family="sans-serif" font-size="14" font-style="italic" lengthAdjust="spacingAndGlyphs" textLength="69" x="310" y="26.5332">Identifiable</text><text fill="#000000" font-family="sans-serif" font-size="10" font-style="italic" lengthAdjust="spacingAndGlyphs" textLength="161" x="264" y="39.9902">com.dxc.dcmp.invcontroller.domain</text><line style="stroke: #A80036; stroke-width: 1.5;" x1="236" x2="427" y1="47.1875" y2="47.1875"/><ellipse cx="246" cy="58.1875" fill="#84BE84" rx="3" ry="3" style="stroke: #038048; stroke-width: 1.0;"/><text fill="#000000" font-family="sans-serif" font-size="11" font-style="italic" lengthAdjust="spacingAndGlyphs" textLength="62" x="255" y="62.6064">getId(): Long</text><ellipse cx="246" cy="72.0234" fill="#84BE84" rx="3" ry="3" style="stroke: #038048; stroke-width: 1.0;"/><text fill="#000000" font-family="sans-serif" font-size="11" font-style="italic" lengthAdjust="spacingAndGlyphs" textLength="82" x="255" y="76.4424">setId(Long): void</text></a><!--MD5=[bbe4ba69619077b892f6d610bf098311]
reverse link com.dxc.dcmp.invcontroller.domain.AbstractEntityModel to com.dxc.dcmp.invcontroller.domain.InvoiceRunActionLogModel--><path codeLine="29" d="M122,83.01 C130.44,99.88 140.99,120.98 151.97,142.94 " fill="none" id="com.dxc.dcmp.invcontroller.domain.AbstractEntityModel-backto-com.dxc.dcmp.invcontroller.domain.InvoiceRunActionLogModel" style="stroke: #A80036; stroke-width: 1.0;"/><polygon fill="none" points="115.71,86.07,113.02,65.05,128.23,79.81,115.71,86.07" style="stroke: #A80036; stroke-width: 1.0;"/><!--MD5=[89257d338c62861bab4f6f99a7b245bc]
reverse link com.dxc.dcmp.invcontroller.domain.Identifiable to com.dxc.dcmp.invcontroller.domain.InvoiceRunActionLogModel--><path codeLine="30" d="M303.83,101.34 C297.45,114.09 290.4,128.19 283.16,142.67 " fill="none" id="com.dxc.dcmp.invcontroller.domain.Identifiable-backto-com.dxc.dcmp.invcontroller.domain.InvoiceRunActionLogModel" style="stroke: #A80036; stroke-width: 1.0; stroke-dasharray: 7.0,7.0;"/><polygon fill="none" points="297.72,97.9,312.93,83.14,310.25,104.16,297.72,97.9" style="stroke: #A80036; stroke-width: 1.0;"/><text fill="#888888" font-family="sans-serif" font-size="10" lengthAdjust="spacingAndGlyphs" textLength="185" x="122" y="430.1074">UMLDoclet 2.0.12, PlantUML 1.2020.16</text><!--MD5=[bb2ce4a24bc4ffd074df9fdf8d1dd94e]
@startuml
    set namespaceSeparator none
    hide empty fields
    hide empty methods

    class "<size:14>InvoiceRunActionLogModel\n<size:10>com.dxc.dcmp.invcontroller.domain" as com.dxc.dcmp.invcontroller.domain.InvoiceRunActionLogModel [[InvoiceRunActionLogModel.html]] {
        -id: Long
        -actionDateTime: OffsetDateTime
        -actionName: String
        -details: String
        -invoiceRun: InvoiceRunModel
        +getId(): Long
        +setId(Long): void
        +getActionDateTime(): OffsetDateTime
        +setActionDateTime(OffsetDateTime): void
        +getActionName(): String
        +setActionName(String): void
        +getDetails(): String
        +setDetails(String): void
        +getInvoiceRun(): InvoiceRunModel
        +setInvoiceRun(InvoiceRunModel): void
    }

    abstract class "<size:14>AbstractEntityModel\n<size:10>com.dxc.dcmp.invcontroller.domain" as com.dxc.dcmp.invcontroller.domain.AbstractEntityModel [[AbstractEntityModel.html]]
    interface "<size:14>Identifiable\n<size:10>com.dxc.dcmp.invcontroller.domain" as com.dxc.dcmp.invcontroller.domain.Identifiable [[Identifiable.html]] {
        {abstract} +getId(): Long
        {abstract} +setId(Long): void
    }

    com.dxc.dcmp.invcontroller.domain.AbstractEntityModel <|- - com.dxc.dcmp.invcontroller.domain.InvoiceRunActionLogModel
    com.dxc.dcmp.invcontroller.domain.Identifiable <|.. com.dxc.dcmp.invcontroller.domain.InvoiceRunActionLogModel

    center footer UMLDoclet 2.0.12, PlantUML 1.2020.16
@enduml

PlantUML version 1.2020.16(Sun Aug 23 22:20:43 EET 2020)
(APACHE source distribution)
Java Runtime: OpenJDK Runtime Environment
JVM: OpenJDK 64-Bit Server VM
Default Encoding: Cp1252
Language: en
Country: US
--></g></svg>