<?xml version="1.0" encoding="UTF-8" standalone="no"?><svg xmlns="http://www.w3.org/2000/svg" xmlns:xlink="http://www.w3.org/1999/xlink" contentScriptType="application/ecmascript" contentStyleType="text/css" height="504px" preserveAspectRatio="none" style="width:320px;height:504px;" version="1.1" viewBox="0 0 320 504" width="320px" zoomAndPan="magnify"><defs><filter height="300%" id="f1f6l9so0q39ub" width="300%" x="-1" y="-1"><feGaussianBlur result="blurOut" stdDeviation="2.0"/><feColorMatrix in="blurOut" result="blurOut2" type="matrix" values="0 0 0 0 0 0 0 0 0 0 0 0 0 0 0 0 0 0 .4 0"/><feOffset dx="4.0" dy="4.0" in="blurOut2" result="blurOut3"/><feBlend in="SourceGraphic" in2="blurOut3" mode="normal"/></filter></defs><g><!--MD5=[56d8b42948fd9ea704ea9a8dc4618fe8]
class com.dxc.dcmp.invcontroller.domain.InvoiceRunFilterModel--><a href="InvoiceRunFilterModel.html" target="_top" title="InvoiceRunFilterModel.html" xlink:actuate="onRequest" xlink:href="InvoiceRunFilterModel.html" xlink:show="new" xlink:title="InvoiceRunFilterModel.html" xlink:type="simple"><rect codeLine="5" fill="#FEFECE" filter="url(#f1f6l9so0q39ub)" height="360.5781" id="com.dxc.dcmp.invcontroller.domain.InvoiceRunFilterModel" style="stroke: #A80036; stroke-width: 1.5;" width="294" x="7" y="107"/><ellipse cx="69.25" cy="127.0938" fill="#ADD1B2" rx="11" ry="11" style="stroke: #A80036; stroke-width: 1.0;"/><path d="M72.0156,122.9688 Q72.1719,122.75 72.3594,122.6406 Q72.5469,122.5313 72.7656,122.5313 Q73.1406,122.5313 73.375,122.7969 Q73.6094,123.0469 73.6094,123.6563 L73.6094,125.1094 Q73.6094,125.7188 73.375,125.9844 Q73.1406,126.25 72.7656,126.25 Q72.4219,126.25 72.2188,126.0469 Q72.0156,125.8594 71.9063,125.3438 Q71.8594,124.9844 71.6719,124.7969 Q71.3438,124.4219 70.7344,124.2031 Q70.125,123.9844 69.5,123.9844 Q68.7344,123.9844 68.0938,124.3125 Q67.4688,124.6406 66.9688,125.3906 Q66.4844,126.1406 66.4844,127.1719 L66.4844,128.2656 Q66.4844,129.5 67.375,130.3281 Q68.2656,131.1406 69.8594,131.1406 Q70.7969,131.1406 71.4531,130.8906 Q71.8438,130.7344 72.2656,130.2969 Q72.5313,130.0313 72.6719,129.9531 Q72.8281,129.875 73.0313,129.875 Q73.3594,129.875 73.6094,130.1406 Q73.875,130.3906 73.875,130.7344 Q73.875,131.0781 73.5313,131.4844 Q73.0313,132.0625 72.2344,132.3906 Q71.1563,132.8438 69.8594,132.8438 Q68.3438,132.8438 67.1406,132.2188 Q66.1563,131.7188 65.4688,130.6563 Q64.7813,129.5781 64.7813,128.2969 L64.7813,127.1406 Q64.7813,125.8125 65.3906,124.6719 Q66.0156,123.5156 67.1094,122.9063 Q68.2031,122.2813 69.4375,122.2813 Q70.1719,122.2813 70.8125,122.4531 Q71.4688,122.6094 72.0156,122.9688 Z "/><text fill="#000000" font-family="sans-serif" font-size="14" lengthAdjust="spacingAndGlyphs" textLength="142" x="99.25" y="126.5332">InvoiceRunFilterModel</text><text fill="#000000" font-family="sans-serif" font-size="10" lengthAdjust="spacingAndGlyphs" textLength="161" x="89.75" y="139.9902">com.dxc.dcmp.invcontroller.domain</text><line style="stroke: #A80036; stroke-width: 1.5;" x1="8" x2="300" y1="147.1875" y2="147.1875"/><rect fill="none" height="6" style="stroke: #C82930; stroke-width: 1.0;" width="6" x="15" y="155.1875"/><text fill="#000000" font-family="sans-serif" font-size="11" lengthAdjust="spacingAndGlyphs" textLength="38" x="27" y="162.6064">id: Long</text><rect fill="none" height="6" style="stroke: #C82930; stroke-width: 1.0;" width="6" x="15" y="169.0234"/><text fill="#000000" font-family="sans-serif" font-size="11" lengthAdjust="spacingAndGlyphs" textLength="144" x="27" y="176.4424">invoiceRun: InvoiceRunModel</text><rect fill="none" height="6" style="stroke: #C82930; stroke-width: 1.0;" width="6" x="15" y="182.8594"/><text fill="#000000" font-family="sans-serif" font-size="11" lengthAdjust="spacingAndGlyphs" textLength="102" x="27" y="190.2783">attributeName: String</text><rect fill="none" height="6" style="stroke: #C82930; stroke-width: 1.0;" width="6" x="15" y="196.6953"/><text fill="#000000" font-family="sans-serif" font-size="11" lengthAdjust="spacingAndGlyphs" textLength="60" x="27" y="204.1143">value: String</text><rect fill="none" height="6" style="stroke: #C82930; stroke-width: 1.0;" width="6" x="15" y="210.5313"/><text fill="#000000" font-family="sans-serif" font-size="11" lengthAdjust="spacingAndGlyphs" textLength="145" x="27" y="217.9502">parent: InvoiceRunFilterModel</text><rect fill="none" height="6" style="stroke: #C82930; stroke-width: 1.0;" width="6" x="15" y="224.3672"/><text fill="#000000" font-family="sans-serif" font-size="11" lengthAdjust="spacingAndGlyphs" textLength="196" x="27" y="231.7861">childrenSet: Set&lt;InvoiceRunFilterModel&gt;</text><line style="stroke: #A80036; stroke-width: 1.5;" x1="8" x2="300" y1="238.2031" y2="238.2031"/><ellipse cx="18" cy="249.2031" fill="#84BE84" rx="3" ry="3" style="stroke: #038048; stroke-width: 1.0;"/><text fill="#000000" font-family="sans-serif" font-size="11" lengthAdjust="spacingAndGlyphs" textLength="116" x="27" y="253.6221">InvoiceRunFilterModel()</text><ellipse cx="18" cy="263.0391" fill="#84BE84" rx="3" ry="3" style="stroke: #038048; stroke-width: 1.0;"/><text fill="#000000" font-family="sans-serif" font-size="11" lengthAdjust="spacingAndGlyphs" textLength="268" x="27" y="267.458">InvoiceRunFilterModel(InvoiceRunModel, String, String)</text><ellipse cx="18" cy="276.875" fill="#84BE84" rx="3" ry="3" style="stroke: #038048; stroke-width: 1.0;"/><text fill="#000000" font-family="sans-serif" font-size="11" lengthAdjust="spacingAndGlyphs" textLength="62" x="27" y="281.2939">getId(): Long</text><ellipse cx="18" cy="290.7109" fill="#84BE84" rx="3" ry="3" style="stroke: #038048; stroke-width: 1.0;"/><text fill="#000000" font-family="sans-serif" font-size="11" lengthAdjust="spacingAndGlyphs" textLength="82" x="27" y="295.1299">setId(Long): void</text><ellipse cx="18" cy="304.5469" fill="#84BE84" rx="3" ry="3" style="stroke: #038048; stroke-width: 1.0;"/><text fill="#000000" font-family="sans-serif" font-size="11" lengthAdjust="spacingAndGlyphs" textLength="168" x="27" y="308.9658">getInvoiceRun(): InvoiceRunModel</text><ellipse cx="18" cy="318.3828" fill="#84BE84" rx="3" ry="3" style="stroke: #038048; stroke-width: 1.0;"/><text fill="#000000" font-family="sans-serif" font-size="11" lengthAdjust="spacingAndGlyphs" textLength="188" x="27" y="322.8018">setInvoiceRun(InvoiceRunModel): void</text><ellipse cx="18" cy="332.2188" fill="#84BE84" rx="3" ry="3" style="stroke: #038048; stroke-width: 1.0;"/><text fill="#000000" font-family="sans-serif" font-size="11" lengthAdjust="spacingAndGlyphs" textLength="126" x="27" y="336.6377">getAttributeName(): String</text><ellipse cx="18" cy="346.0547" fill="#84BE84" rx="3" ry="3" style="stroke: #038048; stroke-width: 1.0;"/><text fill="#000000" font-family="sans-serif" font-size="11" lengthAdjust="spacingAndGlyphs" textLength="146" x="27" y="350.4736">setAttributeName(String): void</text><ellipse cx="18" cy="359.8906" fill="#84BE84" rx="3" ry="3" style="stroke: #038048; stroke-width: 1.0;"/><text fill="#000000" font-family="sans-serif" font-size="11" lengthAdjust="spacingAndGlyphs" textLength="84" x="27" y="364.3096">getValue(): String</text><ellipse cx="18" cy="373.7266" fill="#84BE84" rx="3" ry="3" style="stroke: #038048; stroke-width: 1.0;"/><text fill="#000000" font-family="sans-serif" font-size="11" lengthAdjust="spacingAndGlyphs" textLength="104" x="27" y="378.1455">setValue(String): void</text><ellipse cx="18" cy="387.5625" fill="#84BE84" rx="3" ry="3" style="stroke: #038048; stroke-width: 1.0;"/><text fill="#000000" font-family="sans-serif" font-size="11" lengthAdjust="spacingAndGlyphs" textLength="184" x="27" y="391.9814">addChild(InvoiceRunFilterModel): void</text><ellipse cx="18" cy="401.3984" fill="#84BE84" rx="3" ry="3" style="stroke: #038048; stroke-width: 1.0;"/><text fill="#000000" font-family="sans-serif" font-size="11" lengthAdjust="spacingAndGlyphs" textLength="203" x="27" y="405.8174">removeChild(InvoiceRunFilterModel): void</text><ellipse cx="18" cy="415.2344" fill="#84BE84" rx="3" ry="3" style="stroke: #038048; stroke-width: 1.0;"/><text fill="#000000" font-family="sans-serif" font-size="11" lengthAdjust="spacingAndGlyphs" textLength="169" x="27" y="419.6533">getParent(): InvoiceRunFilterModel</text><ellipse cx="18" cy="429.0703" fill="#84BE84" rx="3" ry="3" style="stroke: #038048; stroke-width: 1.0;"/><text fill="#000000" font-family="sans-serif" font-size="11" lengthAdjust="spacingAndGlyphs" textLength="189" x="27" y="433.4893">setParent(InvoiceRunFilterModel): void</text><ellipse cx="18" cy="442.9063" fill="#84BE84" rx="3" ry="3" style="stroke: #038048; stroke-width: 1.0;"/><text fill="#000000" font-family="sans-serif" font-size="11" lengthAdjust="spacingAndGlyphs" textLength="221" x="27" y="447.3252">getChildrenSet(): Set&lt;InvoiceRunFilterModel&gt;</text><ellipse cx="18" cy="456.7422" fill="#84BE84" rx="3" ry="3" style="stroke: #038048; stroke-width: 1.0;"/><text fill="#000000" font-family="sans-serif" font-size="11" lengthAdjust="spacingAndGlyphs" textLength="241" x="27" y="461.1611">setChildrenSet(Set&lt;InvoiceRunFilterModel&gt;): void</text></a><!--MD5=[f7835cdcdda3ca02b50e6ab63395f5c4]
class com.dxc.dcmp.invcontroller.domain.AbstractEntityModel--><a href="AbstractEntityModel.html" target="_top" title="AbstractEntityModel.html" xlink:actuate="onRequest" xlink:href="AbstractEntityModel.html" xlink:show="new" xlink:title="AbstractEntityModel.html" xlink:type="simple"><rect codeLine="30" fill="#FEFECE" filter="url(#f1f6l9so0q39ub)" height="40.1875" id="com.dxc.dcmp.invcontroller.domain.AbstractEntityModel" style="stroke: #A80036; stroke-width: 1.5;" width="193" x="57.5" y="7"/><ellipse cx="72.5" cy="27.0938" fill="#A9DCDF" rx="11" ry="11" style="stroke: #A80036; stroke-width: 1.0;"/><path d="M74.6875,28.8594 L70.5469,28.8594 L70.125,29.8906 L70.5469,29.8906 Q71.1563,29.8906 71.4219,30.125 Q71.6875,30.3594 71.6875,30.75 Q71.6875,31.125 71.4219,31.3594 Q71.1563,31.5938 70.5469,31.5938 L68.25,31.5938 Q67.6406,31.5938 67.3906,31.3594 Q67.125,31.125 67.125,30.7344 Q67.125,30.3594 67.4063,30.125 Q67.6719,29.875 68.2969,29.8906 L70.9688,23.2344 L69.8594,23.2344 Q69.25,23.2344 68.9844,23 Q68.7188,22.7656 68.7188,22.375 Q68.7188,22 68.9844,21.7656 Q69.25,21.5313 69.8594,21.5313 L73.5313,21.5313 L76.9219,29.8906 Q77.5156,29.8906 77.7031,30.0313 Q78.0938,30.2969 78.0938,30.75 Q78.0938,31.125 77.8281,31.3594 Q77.5781,31.5938 76.9688,31.5938 L74.6719,31.5938 Q74.0625,31.5938 73.7969,31.3594 Q73.5313,31.125 73.5313,30.7344 Q73.5313,30.3594 73.7969,30.125 Q74.0625,29.8906 74.6719,29.8906 L75.0938,29.8906 L74.6875,28.8594 Z M73.9688,27.1563 L72.6094,23.7813 L71.2344,27.1563 L73.9688,27.1563 Z "/><text fill="#000000" font-family="sans-serif" font-size="14" font-style="italic" lengthAdjust="spacingAndGlyphs" textLength="126" x="104" y="26.5332">AbstractEntityModel</text><text fill="#000000" font-family="sans-serif" font-size="10" font-style="italic" lengthAdjust="spacingAndGlyphs" textLength="161" x="86.5" y="39.9902">com.dxc.dcmp.invcontroller.domain</text></a><!--MD5=[74424fecec69775245112bad654b3eab]
reverse link com.dxc.dcmp.invcontroller.domain.AbstractEntityModel to com.dxc.dcmp.invcontroller.domain.InvoiceRunFilterModel--><path codeLine="32" d="M154,67.28 C154,78.89 154,92.42 154,106.96 " fill="none" id="com.dxc.dcmp.invcontroller.domain.AbstractEntityModel-backto-com.dxc.dcmp.invcontroller.domain.InvoiceRunFilterModel" style="stroke: #A80036; stroke-width: 1.0;"/><polygon fill="none" points="147,67.01,154,47.01,161,67.01,147,67.01" style="stroke: #A80036; stroke-width: 1.0;"/><text fill="#888888" font-family="sans-serif" font-size="10" lengthAdjust="spacingAndGlyphs" textLength="185" x="58.5" y="490.959">UMLDoclet 2.0.12, PlantUML 1.2020.16</text><!--MD5=[cd10c8fea517955d15384920f3872e47]
@startuml
    set namespaceSeparator none
    hide empty fields
    hide empty methods

    class "<size:14>InvoiceRunFilterModel\n<size:10>com.dxc.dcmp.invcontroller.domain" as com.dxc.dcmp.invcontroller.domain.InvoiceRunFilterModel [[InvoiceRunFilterModel.html]] {
        -id: Long
        -invoiceRun: InvoiceRunModel
        -attributeName: String
        -value: String
        -parent: InvoiceRunFilterModel
        -childrenSet: Set<InvoiceRunFilterModel>
        +InvoiceRunFilterModel()
        +InvoiceRunFilterModel(InvoiceRunModel, String, String)
        +getId(): Long
        +setId(Long): void
        +getInvoiceRun(): InvoiceRunModel
        +setInvoiceRun(InvoiceRunModel): void
        +getAttributeName(): String
        +setAttributeName(String): void
        +getValue(): String
        +setValue(String): void
        +addChild(InvoiceRunFilterModel): void
        +removeChild(InvoiceRunFilterModel): void
        +getParent(): InvoiceRunFilterModel
        +setParent(InvoiceRunFilterModel): void
        +getChildrenSet(): Set<InvoiceRunFilterModel>
        +setChildrenSet(Set<InvoiceRunFilterModel>): void
    }

    abstract class "<size:14>AbstractEntityModel\n<size:10>com.dxc.dcmp.invcontroller.domain" as com.dxc.dcmp.invcontroller.domain.AbstractEntityModel [[AbstractEntityModel.html]]

    com.dxc.dcmp.invcontroller.domain.AbstractEntityModel <|- - com.dxc.dcmp.invcontroller.domain.InvoiceRunFilterModel

    center footer UMLDoclet 2.0.12, PlantUML 1.2020.16
@enduml

PlantUML version 1.2020.16(Sun Aug 23 22:20:43 EET 2020)
(APACHE source distribution)
Java Runtime: OpenJDK Runtime Environment
JVM: OpenJDK 64-Bit Server VM
Default Encoding: Cp1252
Language: en
Country: US
--></g></svg>