<?xml version="1.0" encoding="UTF-8" standalone="no"?><svg xmlns="http://www.w3.org/2000/svg" xmlns:xlink="http://www.w3.org/1999/xlink" contentScriptType="application/ecmascript" contentStyleType="text/css" height="1057px" preserveAspectRatio="none" style="width:361px;height:1057px;" version="1.1" viewBox="0 0 361 1057" width="361px" zoomAndPan="magnify"><defs><filter height="300%" id="f18laf4hg6v3x9" width="300%" x="-1" y="-1"><feGaussianBlur result="blurOut" stdDeviation="2.0"/><feColorMatrix in="blurOut" result="blurOut2" type="matrix" values="0 0 0 0 0 0 0 0 0 0 0 0 0 0 0 0 0 0 .4 0"/><feOffset dx="4.0" dy="4.0" in="blurOut2" result="blurOut3"/><feBlend in="SourceGraphic" in2="blurOut3" mode="normal"/></filter></defs><g><!--MD5=[2ca1006a3c9a5e1564db5245266b18bc]
class com.dxc.dcmp.invcontroller.domain.InvoiceRunModel--><a href="InvoiceRunModel.html" target="_top" title="InvoiceRunModel.html" xlink:actuate="onRequest" xlink:href="InvoiceRunModel.html" xlink:show="new" xlink:title="InvoiceRunModel.html" xlink:type="simple"><rect codeLine="5" fill="#FEFECE" filter="url(#f18laf4hg6v3x9)" height="914.0156" id="com.dxc.dcmp.invcontroller.domain.InvoiceRunModel" style="stroke: #A80036; stroke-width: 1.5;" width="335" x="7" y="107"/><ellipse cx="89.75" cy="127.0938" fill="#ADD1B2" rx="11" ry="11" style="stroke: #A80036; stroke-width: 1.0;"/><path d="M92.5156,122.9688 Q92.6719,122.75 92.8594,122.6406 Q93.0469,122.5313 93.2656,122.5313 Q93.6406,122.5313 93.875,122.7969 Q94.1094,123.0469 94.1094,123.6563 L94.1094,125.1094 Q94.1094,125.7188 93.875,125.9844 Q93.6406,126.25 93.2656,126.25 Q92.9219,126.25 92.7188,126.0469 Q92.5156,125.8594 92.4063,125.3438 Q92.3594,124.9844 92.1719,124.7969 Q91.8438,124.4219 91.2344,124.2031 Q90.625,123.9844 90,123.9844 Q89.2344,123.9844 88.5938,124.3125 Q87.9688,124.6406 87.4688,125.3906 Q86.9844,126.1406 86.9844,127.1719 L86.9844,128.2656 Q86.9844,129.5 87.875,130.3281 Q88.7656,131.1406 90.3594,131.1406 Q91.2969,131.1406 91.9531,130.8906 Q92.3438,130.7344 92.7656,130.2969 Q93.0313,130.0313 93.1719,129.9531 Q93.3281,129.875 93.5313,129.875 Q93.8594,129.875 94.1094,130.1406 Q94.375,130.3906 94.375,130.7344 Q94.375,131.0781 94.0313,131.4844 Q93.5313,132.0625 92.7344,132.3906 Q91.6563,132.8438 90.3594,132.8438 Q88.8438,132.8438 87.6406,132.2188 Q86.6563,131.7188 85.9688,130.6563 Q85.2813,129.5781 85.2813,128.2969 L85.2813,127.1406 Q85.2813,125.8125 85.8906,124.6719 Q86.5156,123.5156 87.6094,122.9063 Q88.7031,122.2813 89.9375,122.2813 Q90.6719,122.2813 91.3125,122.4531 Q91.9688,122.6094 92.5156,122.9688 Z "/><text fill="#000000" font-family="sans-serif" font-size="14" lengthAdjust="spacingAndGlyphs" textLength="110" x="135.75" y="126.5332">InvoiceRunModel</text><text fill="#000000" font-family="sans-serif" font-size="10" lengthAdjust="spacingAndGlyphs" textLength="161" x="110.25" y="139.9902">com.dxc.dcmp.invcontroller.domain</text><line style="stroke: #A80036; stroke-width: 1.5;" x1="8" x2="341" y1="147.1875" y2="147.1875"/><rect fill="none" height="6" style="stroke: #C82930; stroke-width: 1.0;" width="6" x="15" y="155.1875"/><text fill="#000000" font-family="sans-serif" font-size="11" lengthAdjust="spacingAndGlyphs" textLength="97" x="27" y="162.6064">invoiceRunId: String</text><rect fill="none" height="6" style="stroke: #C82930; stroke-width: 1.0;" width="6" x="15" y="169.0234"/><text fill="#000000" font-family="sans-serif" font-size="11" lengthAdjust="spacingAndGlyphs" textLength="136" x="27" y="176.4424">invoiceDate: LocalDateTime</text><rect fill="none" height="6" style="stroke: #C82930; stroke-width: 1.0;" width="6" x="15" y="182.8594"/><text fill="#000000" font-family="sans-serif" font-size="11" lengthAdjust="spacingAndGlyphs" textLength="128" x="27" y="190.2783">invoicePeriodName: String</text><rect fill="none" height="6" style="stroke: #C82930; stroke-width: 1.0;" width="6" x="15" y="196.6953"/><text fill="#000000" font-family="sans-serif" font-size="11" lengthAdjust="spacingAndGlyphs" textLength="211" x="27" y="204.1143">transactionRangeStartDate: LocalDateTime</text><rect fill="none" height="6" style="stroke: #C82930; stroke-width: 1.0;" width="6" x="15" y="210.5313"/><text fill="#000000" font-family="sans-serif" font-size="11" lengthAdjust="spacingAndGlyphs" textLength="207" x="27" y="217.9502">transactionRangeEndDate: LocalDateTime</text><rect fill="none" height="6" style="stroke: #C82930; stroke-width: 1.0;" width="6" x="15" y="224.3672"/><text fill="#000000" font-family="sans-serif" font-size="11" lengthAdjust="spacingAndGlyphs" textLength="128" x="27" y="231.7861">startDate: OffsetDateTime</text><rect fill="none" height="6" style="stroke: #C82930; stroke-width: 1.0;" width="6" x="15" y="238.2031"/><text fill="#000000" font-family="sans-serif" font-size="11" lengthAdjust="spacingAndGlyphs" textLength="124" x="27" y="245.6221">endDate: OffsetDateTime</text><rect fill="none" height="6" style="stroke: #C82930; stroke-width: 1.0;" width="6" x="15" y="252.0391"/><text fill="#000000" font-family="sans-serif" font-size="11" lengthAdjust="spacingAndGlyphs" textLength="122" x="27" y="259.458">filteringPayerType: String</text><rect fill="none" height="6" style="stroke: #C82930; stroke-width: 1.0;" width="6" x="15" y="265.875"/><text fill="#000000" font-family="sans-serif" font-size="11" lengthAdjust="spacingAndGlyphs" textLength="122" x="27" y="273.2939">filteringBuyerType: String</text><rect fill="none" height="6" style="stroke: #C82930; stroke-width: 1.0;" width="6" x="15" y="279.7109"/><text fill="#000000" font-family="sans-serif" font-size="11" lengthAdjust="spacingAndGlyphs" textLength="144" x="27" y="287.1299">filteringChainViewType: String</text><rect fill="none" height="6" style="stroke: #C82930; stroke-width: 1.0;" width="6" x="15" y="293.5469"/><text fill="#000000" font-family="sans-serif" font-size="11" lengthAdjust="spacingAndGlyphs" textLength="148" x="27" y="300.9658">currentStep: InvoiceStepEnum</text><rect fill="none" height="6" style="stroke: #C82930; stroke-width: 1.0;" width="6" x="15" y="307.3828"/><text fill="#000000" font-family="sans-serif" font-size="11" lengthAdjust="spacingAndGlyphs" textLength="109" x="27" y="314.8018">previewMode: boolean</text><rect fill="none" height="6" style="stroke: #C82930; stroke-width: 1.0;" width="6" x="15" y="321.2188"/><text fill="#000000" font-family="sans-serif" font-size="11" lengthAdjust="spacingAndGlyphs" textLength="230" x="27" y="328.6377">actionLogList: Set&lt;InvoiceRunActionLogModel&gt;</text><rect fill="none" height="6" style="stroke: #C82930; stroke-width: 1.0;" width="6" x="15" y="335.0547"/><text fill="#000000" font-family="sans-serif" font-size="11" lengthAdjust="spacingAndGlyphs" textLength="266" x="27" y="342.4736">marketingMessageList: Set&lt;MarketingMessageModel&gt;</text><rect fill="none" height="6" style="stroke: #C82930; stroke-width: 1.0;" width="6" x="15" y="348.8906"/><text fill="#000000" font-family="sans-serif" font-size="11" lengthAdjust="spacingAndGlyphs" textLength="217" x="27" y="356.3096">invoiceBucketList: Set&lt;InvoiceBucketModel&gt;</text><rect fill="none" height="6" style="stroke: #C82930; stroke-width: 1.0;" width="6" x="15" y="362.7266"/><text fill="#000000" font-family="sans-serif" font-size="11" lengthAdjust="spacingAndGlyphs" textLength="137" x="27" y="370.1455">payerList: Set&lt;PayerModel&gt;</text><rect fill="none" height="6" style="stroke: #C82930; stroke-width: 1.0;" width="6" x="15" y="376.5625"/><text fill="#000000" font-family="sans-serif" font-size="11" lengthAdjust="spacingAndGlyphs" textLength="150" x="27" y="383.9814">status: InvoiceRunStatusEnum</text><rect fill="none" height="6" style="stroke: #C82930; stroke-width: 1.0;" width="6" x="15" y="390.3984"/><text fill="#000000" font-family="sans-serif" font-size="11" lengthAdjust="spacingAndGlyphs" textLength="110" x="27" y="397.8174">rollbackReason: String</text><rect fill="none" height="6" style="stroke: #C82930; stroke-width: 1.0;" width="6" x="15" y="404.2344"/><text fill="#000000" font-family="sans-serif" font-size="11" lengthAdjust="spacingAndGlyphs" textLength="101" x="27" y="411.6533">failureReason: String</text><line style="stroke: #A80036; stroke-width: 1.5;" x1="8" x2="341" y1="418.0703" y2="418.0703"/><ellipse cx="18" cy="429.0703" fill="#84BE84" rx="3" ry="3" style="stroke: #038048; stroke-width: 1.0;"/><text fill="#000000" font-family="sans-serif" font-size="11" lengthAdjust="spacingAndGlyphs" textLength="238" x="27" y="433.4893">getTransactionRangeStartDate(): LocalDateTime</text><ellipse cx="18" cy="442.9063" fill="#84BE84" rx="3" ry="3" style="stroke: #038048; stroke-width: 1.0;"/><text fill="#000000" font-family="sans-serif" font-size="11" lengthAdjust="spacingAndGlyphs" textLength="258" x="27" y="447.3252">setTransactionRangeStartDate(LocalDateTime): void</text><ellipse cx="18" cy="456.7422" fill="#84BE84" rx="3" ry="3" style="stroke: #038048; stroke-width: 1.0;"/><text fill="#000000" font-family="sans-serif" font-size="11" lengthAdjust="spacingAndGlyphs" textLength="234" x="27" y="461.1611">getTransactionRangeEndDate(): LocalDateTime</text><ellipse cx="18" cy="470.5781" fill="#84BE84" rx="3" ry="3" style="stroke: #038048; stroke-width: 1.0;"/><text fill="#000000" font-family="sans-serif" font-size="11" lengthAdjust="spacingAndGlyphs" textLength="254" x="27" y="474.9971">setTransactionRangeEndDate(LocalDateTime): void</text><ellipse cx="18" cy="484.4141" fill="#84BE84" rx="3" ry="3" style="stroke: #038048; stroke-width: 1.0;"/><text fill="#000000" font-family="sans-serif" font-size="11" lengthAdjust="spacingAndGlyphs" textLength="152" x="27" y="488.833">getStartDate(): OffsetDateTime</text><ellipse cx="18" cy="498.25" fill="#84BE84" rx="3" ry="3" style="stroke: #038048; stroke-width: 1.0;"/><text fill="#000000" font-family="sans-serif" font-size="11" lengthAdjust="spacingAndGlyphs" textLength="172" x="27" y="502.6689">setStartDate(OffsetDateTime): void</text><ellipse cx="18" cy="512.0859" fill="#84BE84" rx="3" ry="3" style="stroke: #038048; stroke-width: 1.0;"/><text fill="#000000" font-family="sans-serif" font-size="11" lengthAdjust="spacingAndGlyphs" textLength="148" x="27" y="516.5049">getEndDate(): OffsetDateTime</text><ellipse cx="18" cy="525.9219" fill="#84BE84" rx="3" ry="3" style="stroke: #038048; stroke-width: 1.0;"/><text fill="#000000" font-family="sans-serif" font-size="11" lengthAdjust="spacingAndGlyphs" textLength="168" x="27" y="530.3408">setEndDate(OffsetDateTime): void</text><ellipse cx="18" cy="539.7578" fill="#84BE84" rx="3" ry="3" style="stroke: #038048; stroke-width: 1.0;"/><text fill="#000000" font-family="sans-serif" font-size="11" lengthAdjust="spacingAndGlyphs" textLength="152" x="27" y="544.1768">getInvoicePeriodName(): String</text><ellipse cx="18" cy="553.5938" fill="#84BE84" rx="3" ry="3" style="stroke: #038048; stroke-width: 1.0;"/><text fill="#000000" font-family="sans-serif" font-size="11" lengthAdjust="spacingAndGlyphs" textLength="172" x="27" y="558.0127">setInvoicePeriodName(String): void</text><ellipse cx="18" cy="567.4297" fill="#84BE84" rx="3" ry="3" style="stroke: #038048; stroke-width: 1.0;"/><text fill="#000000" font-family="sans-serif" font-size="11" lengthAdjust="spacingAndGlyphs" textLength="121" x="27" y="571.8486">getInvoiceRunId(): String</text><ellipse cx="18" cy="581.2656" fill="#84BE84" rx="3" ry="3" style="stroke: #038048; stroke-width: 1.0;"/><text fill="#000000" font-family="sans-serif" font-size="11" lengthAdjust="spacingAndGlyphs" textLength="141" x="27" y="585.6846">setInvoiceRunId(String): void</text><ellipse cx="18" cy="595.1016" fill="#84BE84" rx="3" ry="3" style="stroke: #038048; stroke-width: 1.0;"/><text fill="#000000" font-family="sans-serif" font-size="11" lengthAdjust="spacingAndGlyphs" textLength="254" x="27" y="599.5205">getActionLogList(): Set&lt;InvoiceRunActionLogModel&gt;</text><ellipse cx="18" cy="608.9375" fill="#84BE84" rx="3" ry="3" style="stroke: #038048; stroke-width: 1.0;"/><text fill="#000000" font-family="sans-serif" font-size="11" lengthAdjust="spacingAndGlyphs" textLength="232" x="27" y="613.3564">addActionLog(InvoiceRunActionLogModel): void</text><ellipse cx="18" cy="622.7734" fill="#84BE84" rx="3" ry="3" style="stroke: #038048; stroke-width: 1.0;"/><text fill="#000000" font-family="sans-serif" font-size="11" lengthAdjust="spacingAndGlyphs" textLength="251" x="27" y="627.1924">removeActionLog(InvoiceRunActionLogModel): void</text><ellipse cx="18" cy="636.6094" fill="#84BE84" rx="3" ry="3" style="stroke: #038048; stroke-width: 1.0;"/><text fill="#000000" font-family="sans-serif" font-size="11" lengthAdjust="spacingAndGlyphs" textLength="289" x="27" y="641.0283">getMarketingMessageList(): Set&lt;MarketingMessageModel&gt;</text><ellipse cx="18" cy="650.4453" fill="#84BE84" rx="3" ry="3" style="stroke: #038048; stroke-width: 1.0;"/><text fill="#000000" font-family="sans-serif" font-size="11" lengthAdjust="spacingAndGlyphs" textLength="309" x="27" y="654.8643">setMarketingMessageList(Set&lt;MarketingMessageModel&gt;): void</text><ellipse cx="18" cy="664.2813" fill="#84BE84" rx="3" ry="3" style="stroke: #038048; stroke-width: 1.0;"/><text fill="#000000" font-family="sans-serif" font-size="11" lengthAdjust="spacingAndGlyphs" textLength="267" x="27" y="668.7002">addMarketingMessage(MarketingMessageModel): void</text><ellipse cx="18" cy="678.1172" fill="#84BE84" rx="3" ry="3" style="stroke: #038048; stroke-width: 1.0;"/><text fill="#000000" font-family="sans-serif" font-size="11" lengthAdjust="spacingAndGlyphs" textLength="286" x="27" y="682.5361">removeMarketingMessage(MarketingMessageModel): void</text><ellipse cx="18" cy="691.9531" fill="#84BE84" rx="3" ry="3" style="stroke: #038048; stroke-width: 1.0;"/><text fill="#000000" font-family="sans-serif" font-size="11" lengthAdjust="spacingAndGlyphs" textLength="241" x="27" y="696.3721">getInvoiceBucketList(): Set&lt;InvoiceBucketModel&gt;</text><ellipse cx="18" cy="705.7891" fill="#84BE84" rx="3" ry="3" style="stroke: #038048; stroke-width: 1.0;"/><text fill="#000000" font-family="sans-serif" font-size="11" lengthAdjust="spacingAndGlyphs" textLength="219" x="27" y="710.208">addInvoiceBucket(InvoiceBucketModel): void</text><ellipse cx="18" cy="719.625" fill="#84BE84" rx="3" ry="3" style="stroke: #038048; stroke-width: 1.0;"/><text fill="#000000" font-family="sans-serif" font-size="11" lengthAdjust="spacingAndGlyphs" textLength="238" x="27" y="724.0439">removeInvoiceBucket(InvoiceBucketModel): void</text><ellipse cx="18" cy="733.4609" fill="#84BE84" rx="3" ry="3" style="stroke: #038048; stroke-width: 1.0;"/><text fill="#000000" font-family="sans-serif" font-size="11" lengthAdjust="spacingAndGlyphs" textLength="161" x="27" y="737.8799">getPayerList(): Set&lt;PayerModel&gt;</text><ellipse cx="18" cy="747.2969" fill="#84BE84" rx="3" ry="3" style="stroke: #038048; stroke-width: 1.0;"/><text fill="#000000" font-family="sans-serif" font-size="11" lengthAdjust="spacingAndGlyphs" textLength="139" x="27" y="751.7158">addPayer(PayerModel): void</text><ellipse cx="18" cy="761.1328" fill="#84BE84" rx="3" ry="3" style="stroke: #038048; stroke-width: 1.0;"/><text fill="#000000" font-family="sans-serif" font-size="11" lengthAdjust="spacingAndGlyphs" textLength="158" x="27" y="765.5518">removePayer(PayerModel): void</text><ellipse cx="18" cy="774.9688" fill="#84BE84" rx="3" ry="3" style="stroke: #038048; stroke-width: 1.0;"/><text fill="#000000" font-family="sans-serif" font-size="11" lengthAdjust="spacingAndGlyphs" textLength="174" x="27" y="779.3877">getStatus(): InvoiceRunStatusEnum</text><ellipse cx="18" cy="788.8047" fill="#84BE84" rx="3" ry="3" style="stroke: #038048; stroke-width: 1.0;"/><text fill="#000000" font-family="sans-serif" font-size="11" lengthAdjust="spacingAndGlyphs" textLength="194" x="27" y="793.2236">setStatus(InvoiceRunStatusEnum): void</text><ellipse cx="18" cy="802.6406" fill="#84BE84" rx="3" ry="3" style="stroke: #038048; stroke-width: 1.0;"/><text fill="#000000" font-family="sans-serif" font-size="11" lengthAdjust="spacingAndGlyphs" textLength="173" x="27" y="807.0596">getCurrentStep(): InvoiceStepEnum</text><ellipse cx="18" cy="816.4766" fill="#84BE84" rx="3" ry="3" style="stroke: #038048; stroke-width: 1.0;"/><text fill="#000000" font-family="sans-serif" font-size="11" lengthAdjust="spacingAndGlyphs" textLength="193" x="27" y="820.8955">setCurrentStep(InvoiceStepEnum): void</text><ellipse cx="18" cy="830.3125" fill="#84BE84" rx="3" ry="3" style="stroke: #038048; stroke-width: 1.0;"/><text fill="#000000" font-family="sans-serif" font-size="11" lengthAdjust="spacingAndGlyphs" textLength="160" x="27" y="834.7314">getInvoiceDate(): LocalDateTime</text><ellipse cx="18" cy="844.1484" fill="#84BE84" rx="3" ry="3" style="stroke: #038048; stroke-width: 1.0;"/><text fill="#000000" font-family="sans-serif" font-size="11" lengthAdjust="spacingAndGlyphs" textLength="180" x="27" y="848.5674">setInvoiceDate(LocalDateTime): void</text><ellipse cx="18" cy="857.9844" fill="#84BE84" rx="3" ry="3" style="stroke: #038048; stroke-width: 1.0;"/><text fill="#000000" font-family="sans-serif" font-size="11" lengthAdjust="spacingAndGlyphs" textLength="126" x="27" y="862.4033">isPreviewMode(): boolean</text><ellipse cx="18" cy="871.8203" fill="#84BE84" rx="3" ry="3" style="stroke: #038048; stroke-width: 1.0;"/><text fill="#000000" font-family="sans-serif" font-size="11" lengthAdjust="spacingAndGlyphs" textLength="153" x="27" y="876.2393">setPreviewMode(boolean): void</text><ellipse cx="18" cy="885.6563" fill="#84BE84" rx="3" ry="3" style="stroke: #038048; stroke-width: 1.0;"/><text fill="#000000" font-family="sans-serif" font-size="11" lengthAdjust="spacingAndGlyphs" textLength="149" x="27" y="890.0752">getFilteringPayerType(): String</text><ellipse cx="18" cy="899.4922" fill="#84BE84" rx="3" ry="3" style="stroke: #038048; stroke-width: 1.0;"/><text fill="#000000" font-family="sans-serif" font-size="11" lengthAdjust="spacingAndGlyphs" textLength="169" x="27" y="903.9111">setFilteringPayerType(String): void</text><ellipse cx="18" cy="913.3281" fill="#84BE84" rx="3" ry="3" style="stroke: #038048; stroke-width: 1.0;"/><text fill="#000000" font-family="sans-serif" font-size="11" lengthAdjust="spacingAndGlyphs" textLength="149" x="27" y="917.7471">getFilteringBuyerType(): String</text><ellipse cx="18" cy="927.1641" fill="#84BE84" rx="3" ry="3" style="stroke: #038048; stroke-width: 1.0;"/><text fill="#000000" font-family="sans-serif" font-size="11" lengthAdjust="spacingAndGlyphs" textLength="169" x="27" y="931.583">setFilteringBuyerType(String): void</text><ellipse cx="18" cy="941" fill="#84BE84" rx="3" ry="3" style="stroke: #038048; stroke-width: 1.0;"/><text fill="#000000" font-family="sans-serif" font-size="11" lengthAdjust="spacingAndGlyphs" textLength="171" x="27" y="945.4189">getFilteringChainViewType(): String</text><ellipse cx="18" cy="954.8359" fill="#84BE84" rx="3" ry="3" style="stroke: #038048; stroke-width: 1.0;"/><text fill="#000000" font-family="sans-serif" font-size="11" lengthAdjust="spacingAndGlyphs" textLength="191" x="27" y="959.2549">setFilteringChainViewType(String): void</text><ellipse cx="18" cy="968.6719" fill="#84BE84" rx="3" ry="3" style="stroke: #038048; stroke-width: 1.0;"/><text fill="#000000" font-family="sans-serif" font-size="11" lengthAdjust="spacingAndGlyphs" textLength="128" x="27" y="973.0908">getFailureReason(): String</text><ellipse cx="18" cy="982.5078" fill="#84BE84" rx="3" ry="3" style="stroke: #038048; stroke-width: 1.0;"/><text fill="#000000" font-family="sans-serif" font-size="11" lengthAdjust="spacingAndGlyphs" textLength="148" x="27" y="986.9268">setFailureReason(String): void</text><ellipse cx="18" cy="996.3438" fill="#84BE84" rx="3" ry="3" style="stroke: #038048; stroke-width: 1.0;"/><text fill="#000000" font-family="sans-serif" font-size="11" lengthAdjust="spacingAndGlyphs" textLength="137" x="27" y="1000.7627">getRollbackReason(): String</text><ellipse cx="18" cy="1010.1797" fill="#84BE84" rx="3" ry="3" style="stroke: #038048; stroke-width: 1.0;"/><text fill="#000000" font-family="sans-serif" font-size="11" lengthAdjust="spacingAndGlyphs" textLength="157" x="27" y="1014.5986">setRollbackReason(String): void</text></a><!--MD5=[f7835cdcdda3ca02b50e6ab63395f5c4]
class com.dxc.dcmp.invcontroller.domain.AbstractEntityModel--><a href="AbstractEntityModel.html" target="_top" title="AbstractEntityModel.html" xlink:actuate="onRequest" xlink:href="AbstractEntityModel.html" xlink:show="new" xlink:title="AbstractEntityModel.html" xlink:type="simple"><rect codeLine="70" fill="#FEFECE" filter="url(#f18laf4hg6v3x9)" height="40.1875" id="com.dxc.dcmp.invcontroller.domain.AbstractEntityModel" style="stroke: #A80036; stroke-width: 1.5;" width="193" x="78" y="7"/><ellipse cx="93" cy="27.0938" fill="#A9DCDF" rx="11" ry="11" style="stroke: #A80036; stroke-width: 1.0;"/><path d="M95.1875,28.8594 L91.0469,28.8594 L90.625,29.8906 L91.0469,29.8906 Q91.6563,29.8906 91.9219,30.125 Q92.1875,30.3594 92.1875,30.75 Q92.1875,31.125 91.9219,31.3594 Q91.6563,31.5938 91.0469,31.5938 L88.75,31.5938 Q88.1406,31.5938 87.8906,31.3594 Q87.625,31.125 87.625,30.7344 Q87.625,30.3594 87.9063,30.125 Q88.1719,29.875 88.7969,29.8906 L91.4688,23.2344 L90.3594,23.2344 Q89.75,23.2344 89.4844,23 Q89.2188,22.7656 89.2188,22.375 Q89.2188,22 89.4844,21.7656 Q89.75,21.5313 90.3594,21.5313 L94.0313,21.5313 L97.4219,29.8906 Q98.0156,29.8906 98.2031,30.0313 Q98.5938,30.2969 98.5938,30.75 Q98.5938,31.125 98.3281,31.3594 Q98.0781,31.5938 97.4688,31.5938 L95.1719,31.5938 Q94.5625,31.5938 94.2969,31.3594 Q94.0313,31.125 94.0313,30.7344 Q94.0313,30.3594 94.2969,30.125 Q94.5625,29.8906 95.1719,29.8906 L95.5938,29.8906 L95.1875,28.8594 Z M94.4688,27.1563 L93.1094,23.7813 L91.7344,27.1563 L94.4688,27.1563 Z "/><text fill="#000000" font-family="sans-serif" font-size="14" font-style="italic" lengthAdjust="spacingAndGlyphs" textLength="126" x="124.5" y="26.5332">AbstractEntityModel</text><text fill="#000000" font-family="sans-serif" font-size="10" font-style="italic" lengthAdjust="spacingAndGlyphs" textLength="161" x="107" y="39.9902">com.dxc.dcmp.invcontroller.domain</text></a><!--MD5=[ca84f9d5a833b20338e368df4f625049]
reverse link com.dxc.dcmp.invcontroller.domain.AbstractEntityModel to com.dxc.dcmp.invcontroller.domain.InvoiceRunModel--><path codeLine="72" d="M174.5,67.12 C174.5,78.4 174.5,91.78 174.5,106.76 " fill="none" id="com.dxc.dcmp.invcontroller.domain.AbstractEntityModel-backto-com.dxc.dcmp.invcontroller.domain.InvoiceRunModel" style="stroke: #A80036; stroke-width: 1.0;"/><polygon fill="none" points="167.5,67.04,174.5,47.04,181.5,67.04,167.5,67.04" style="stroke: #A80036; stroke-width: 1.0;"/><text fill="#888888" font-family="sans-serif" font-size="10" lengthAdjust="spacingAndGlyphs" textLength="185" x="79" y="1044.3965">UMLDoclet 2.0.12, PlantUML 1.2020.16</text><!--MD5=[5601acb32a34786cf4245536e1c76f4c]
@startuml
    set namespaceSeparator none
    hide empty fields
    hide empty methods

    class "<size:14>InvoiceRunModel\n<size:10>com.dxc.dcmp.invcontroller.domain" as com.dxc.dcmp.invcontroller.domain.InvoiceRunModel [[InvoiceRunModel.html]] {
        -invoiceRunId: String
        -invoiceDate: LocalDateTime
        -invoicePeriodName: String
        -transactionRangeStartDate: LocalDateTime
        -transactionRangeEndDate: LocalDateTime
        -startDate: OffsetDateTime
        -endDate: OffsetDateTime
        -filteringPayerType: String
        -filteringBuyerType: String
        -filteringChainViewType: String
        -currentStep: InvoiceStepEnum
        -previewMode: boolean
        -actionLogList: Set<InvoiceRunActionLogModel>
        -marketingMessageList: Set<MarketingMessageModel>
        -invoiceBucketList: Set<InvoiceBucketModel>
        -payerList: Set<PayerModel>
        -status: InvoiceRunStatusEnum
        -rollbackReason: String
        -failureReason: String
        +getTransactionRangeStartDate(): LocalDateTime
        +setTransactionRangeStartDate(LocalDateTime): void
        +getTransactionRangeEndDate(): LocalDateTime
        +setTransactionRangeEndDate(LocalDateTime): void
        +getStartDate(): OffsetDateTime
        +setStartDate(OffsetDateTime): void
        +getEndDate(): OffsetDateTime
        +setEndDate(OffsetDateTime): void
        +getInvoicePeriodName(): String
        +setInvoicePeriodName(String): void
        +getInvoiceRunId(): String
        +setInvoiceRunId(String): void
        +getActionLogList(): Set<InvoiceRunActionLogModel>
        +addActionLog(InvoiceRunActionLogModel): void
        +removeActionLog(InvoiceRunActionLogModel): void
        +getMarketingMessageList(): Set<MarketingMessageModel>
        +setMarketingMessageList(Set<MarketingMessageModel>): void
        +addMarketingMessage(MarketingMessageModel): void
        +removeMarketingMessage(MarketingMessageModel): void
        +getInvoiceBucketList(): Set<InvoiceBucketModel>
        +addInvoiceBucket(InvoiceBucketModel): void
        +removeInvoiceBucket(InvoiceBucketModel): void
        +getPayerList(): Set<PayerModel>
        +addPayer(PayerModel): void
        +removePayer(PayerModel): void
        +getStatus(): InvoiceRunStatusEnum
        +setStatus(InvoiceRunStatusEnum): void
        +getCurrentStep(): InvoiceStepEnum
        +setCurrentStep(InvoiceStepEnum): void
        +getInvoiceDate(): LocalDateTime
        +setInvoiceDate(LocalDateTime): void
        +isPreviewMode(): boolean
        +setPreviewMode(boolean): void
        +getFilteringPayerType(): String
        +setFilteringPayerType(String): void
        +getFilteringBuyerType(): String
        +setFilteringBuyerType(String): void
        +getFilteringChainViewType(): String
        +setFilteringChainViewType(String): void
        +getFailureReason(): String
        +setFailureReason(String): void
        +getRollbackReason(): String
        +setRollbackReason(String): void
    }

    abstract class "<size:14>AbstractEntityModel\n<size:10>com.dxc.dcmp.invcontroller.domain" as com.dxc.dcmp.invcontroller.domain.AbstractEntityModel [[AbstractEntityModel.html]]

    com.dxc.dcmp.invcontroller.domain.AbstractEntityModel <|- - com.dxc.dcmp.invcontroller.domain.InvoiceRunModel

    center footer UMLDoclet 2.0.12, PlantUML 1.2020.16
@enduml

PlantUML version 1.2020.16(Sun Aug 23 22:20:43 EET 2020)
(APACHE source distribution)
Java Runtime: OpenJDK Runtime Environment
JVM: OpenJDK 64-Bit Server VM
Default Encoding: Cp1252
Language: en
Country: US
--></g></svg>