<?xml version="1.0" encoding="UTF-8" standalone="no"?><svg xmlns="http://www.w3.org/2000/svg" xmlns:xlink="http://www.w3.org/1999/xlink" contentScriptType="application/ecmascript" contentStyleType="text/css" height="504px" preserveAspectRatio="none" style="width:580px;height:504px;" version="1.1" viewBox="0 0 580 504" width="580px" zoomAndPan="magnify"><defs><filter height="300%" id="f1kj0ye7zspomc" width="300%" x="-1" y="-1"><feGaussianBlur result="blurOut" stdDeviation="2.0"/><feColorMatrix in="blurOut" result="blurOut2" type="matrix" values="0 0 0 0 0 0 0 0 0 0 0 0 0 0 0 0 0 0 .4 0"/><feOffset dx="4.0" dy="4.0" in="blurOut2" result="blurOut3"/><feBlend in="SourceGraphic" in2="blurOut3" mode="normal"/></filter></defs><g><!--MD5=[5b130d3e6c433ec6b7a35937769d387e]
class com.dxc.dcmp.invcontroller.domain.InvoiceBucketModel--><a href="InvoiceBucketModel.html" target="_top" title="InvoiceBucketModel.html" xlink:actuate="onRequest" xlink:href="InvoiceBucketModel.html" xlink:show="new" xlink:title="InvoiceBucketModel.html" xlink:type="simple"><rect codeLine="5" fill="#FEFECE" filter="url(#f1kj0ye7zspomc)" height="360.5781" id="com.dxc.dcmp.invcontroller.domain.InvoiceBucketModel" style="stroke: #A80036; stroke-width: 1.5;" width="554" x="7" y="107"/><ellipse cx="199.25" cy="127.0938" fill="#ADD1B2" rx="11" ry="11" style="stroke: #A80036; stroke-width: 1.0;"/><path d="M202.0156,122.9688 Q202.1719,122.75 202.3594,122.6406 Q202.5469,122.5313 202.7656,122.5313 Q203.1406,122.5313 203.375,122.7969 Q203.6094,123.0469 203.6094,123.6563 L203.6094,125.1094 Q203.6094,125.7188 203.375,125.9844 Q203.1406,126.25 202.7656,126.25 Q202.4219,126.25 202.2188,126.0469 Q202.0156,125.8594 201.9063,125.3438 Q201.8594,124.9844 201.6719,124.7969 Q201.3438,124.4219 200.7344,124.2031 Q200.125,123.9844 199.5,123.9844 Q198.7344,123.9844 198.0938,124.3125 Q197.4688,124.6406 196.9688,125.3906 Q196.4844,126.1406 196.4844,127.1719 L196.4844,128.2656 Q196.4844,129.5 197.375,130.3281 Q198.2656,131.1406 199.8594,131.1406 Q200.7969,131.1406 201.4531,130.8906 Q201.8438,130.7344 202.2656,130.2969 Q202.5313,130.0313 202.6719,129.9531 Q202.8281,129.875 203.0313,129.875 Q203.3594,129.875 203.6094,130.1406 Q203.875,130.3906 203.875,130.7344 Q203.875,131.0781 203.5313,131.4844 Q203.0313,132.0625 202.2344,132.3906 Q201.1563,132.8438 199.8594,132.8438 Q198.3438,132.8438 197.1406,132.2188 Q196.1563,131.7188 195.4688,130.6563 Q194.7813,129.5781 194.7813,128.2969 L194.7813,127.1406 Q194.7813,125.8125 195.3906,124.6719 Q196.0156,123.5156 197.1094,122.9063 Q198.2031,122.2813 199.4375,122.2813 Q200.1719,122.2813 200.8125,122.4531 Q201.4688,122.6094 202.0156,122.9688 Z "/><text fill="#000000" font-family="sans-serif" font-size="14" lengthAdjust="spacingAndGlyphs" textLength="127" x="236.75" y="126.5332">InvoiceBucketModel</text><text fill="#000000" font-family="sans-serif" font-size="10" lengthAdjust="spacingAndGlyphs" textLength="161" x="219.75" y="139.9902">com.dxc.dcmp.invcontroller.domain</text><line style="stroke: #A80036; stroke-width: 1.5;" x1="8" x2="560" y1="147.1875" y2="147.1875"/><rect fill="none" height="6" style="stroke: #C82930; stroke-width: 1.0;" width="6" x="15" y="155.1875"/><text fill="#000000" font-family="sans-serif" font-size="11" lengthAdjust="spacingAndGlyphs" textLength="111" x="27" y="162.6064">invoiceBucketId: String</text><rect fill="none" height="6" style="stroke: #C82930; stroke-width: 1.0;" width="6" x="15" y="169.0234"/><text fill="#000000" font-family="sans-serif" font-size="11" lengthAdjust="spacingAndGlyphs" textLength="164" x="27" y="176.4424">status: InvoiceBucketStatusEnum</text><rect fill="none" height="6" style="stroke: #C82930; stroke-width: 1.0;" width="6" x="15" y="182.8594"/><text fill="#000000" font-family="sans-serif" font-size="11" lengthAdjust="spacingAndGlyphs" textLength="138" x="27" y="190.2783">bucketFailureReason: String</text><rect fill="none" height="6" style="stroke: #C82930; stroke-width: 1.0;" width="6" x="15" y="196.6953"/><text fill="#000000" font-family="sans-serif" font-size="11" lengthAdjust="spacingAndGlyphs" textLength="144" x="27" y="204.1143">invoiceRun: InvoiceRunModel</text><rect fill="none" height="6" style="stroke: #C82930; stroke-width: 1.0;" width="6" x="15" y="210.5313"/><text fill="#000000" font-family="sans-serif" font-size="11" lengthAdjust="spacingAndGlyphs" textLength="109" x="27" y="217.9502">previewMode: boolean</text><rect fill="none" height="6" style="stroke: #C82930; stroke-width: 1.0;" width="6" x="15" y="224.3672"/><text fill="#000000" font-family="sans-serif" font-size="11" lengthAdjust="spacingAndGlyphs" textLength="137" x="27" y="231.7861">payerList: Set&lt;PayerModel&gt;</text><line style="stroke: #A80036; stroke-width: 1.5;" x1="8" x2="560" y1="238.2031" y2="238.2031"/><ellipse cx="18" cy="249.2031" fill="#84BE84" rx="3" ry="3" style="stroke: #038048; stroke-width: 1.0;"/><text fill="#000000" font-family="sans-serif" font-size="11" lengthAdjust="spacingAndGlyphs" textLength="106" x="27" y="253.6221">InvoiceBucketModel()</text><ellipse cx="18" cy="263.0391" fill="#84BE84" rx="3" ry="3" style="stroke: #038048; stroke-width: 1.0;"/><text fill="#000000" font-family="sans-serif" font-size="11" lengthAdjust="spacingAndGlyphs" textLength="494" x="27" y="267.458">InvoiceBucketModel(String, InvoiceBucketStatusEnum, InvoiceRunModel, boolean, Set&lt;PayerModel&gt;)</text><ellipse cx="18" cy="276.875" fill="#84BE84" rx="3" ry="3" style="stroke: #038048; stroke-width: 1.0;"/><text fill="#000000" font-family="sans-serif" font-size="11" lengthAdjust="spacingAndGlyphs" textLength="528" x="27" y="281.2939">InvoiceBucketModel(String, InvoiceBucketStatusEnum, String, InvoiceRunModel, boolean, Set&lt;PayerModel&gt;)</text><ellipse cx="18" cy="290.7109" fill="#84BE84" rx="3" ry="3" style="stroke: #038048; stroke-width: 1.0;"/><text fill="#000000" font-family="sans-serif" font-size="11" lengthAdjust="spacingAndGlyphs" textLength="162" x="27" y="295.1299">getBucketFailureReason(): String</text><ellipse cx="18" cy="304.5469" fill="#84BE84" rx="3" ry="3" style="stroke: #038048; stroke-width: 1.0;"/><text fill="#000000" font-family="sans-serif" font-size="11" lengthAdjust="spacingAndGlyphs" textLength="182" x="27" y="308.9658">setBucketFailureReason(String): void</text><ellipse cx="18" cy="318.3828" fill="#84BE84" rx="3" ry="3" style="stroke: #038048; stroke-width: 1.0;"/><text fill="#000000" font-family="sans-serif" font-size="11" lengthAdjust="spacingAndGlyphs" textLength="135" x="27" y="322.8018">getInvoiceBucketId(): String</text><ellipse cx="18" cy="332.2188" fill="#84BE84" rx="3" ry="3" style="stroke: #038048; stroke-width: 1.0;"/><text fill="#000000" font-family="sans-serif" font-size="11" lengthAdjust="spacingAndGlyphs" textLength="155" x="27" y="336.6377">setInvoiceBucketId(String): void</text><ellipse cx="18" cy="346.0547" fill="#84BE84" rx="3" ry="3" style="stroke: #038048; stroke-width: 1.0;"/><text fill="#000000" font-family="sans-serif" font-size="11" lengthAdjust="spacingAndGlyphs" textLength="168" x="27" y="350.4736">getInvoiceRun(): InvoiceRunModel</text><ellipse cx="18" cy="359.8906" fill="#84BE84" rx="3" ry="3" style="stroke: #038048; stroke-width: 1.0;"/><text fill="#000000" font-family="sans-serif" font-size="11" lengthAdjust="spacingAndGlyphs" textLength="188" x="27" y="364.3096">setInvoiceRun(InvoiceRunModel): void</text><ellipse cx="18" cy="373.7266" fill="#84BE84" rx="3" ry="3" style="stroke: #038048; stroke-width: 1.0;"/><text fill="#000000" font-family="sans-serif" font-size="11" lengthAdjust="spacingAndGlyphs" textLength="161" x="27" y="378.1455">getPayerList(): Set&lt;PayerModel&gt;</text><ellipse cx="18" cy="387.5625" fill="#84BE84" rx="3" ry="3" style="stroke: #038048; stroke-width: 1.0;"/><text fill="#000000" font-family="sans-serif" font-size="11" lengthAdjust="spacingAndGlyphs" textLength="139" x="27" y="391.9814">addPayer(PayerModel): void</text><ellipse cx="18" cy="401.3984" fill="#84BE84" rx="3" ry="3" style="stroke: #038048; stroke-width: 1.0;"/><text fill="#000000" font-family="sans-serif" font-size="11" lengthAdjust="spacingAndGlyphs" textLength="158" x="27" y="405.8174">removePayer(PayerModel): void</text><ellipse cx="18" cy="415.2344" fill="#84BE84" rx="3" ry="3" style="stroke: #038048; stroke-width: 1.0;"/><text fill="#000000" font-family="sans-serif" font-size="11" lengthAdjust="spacingAndGlyphs" textLength="188" x="27" y="419.6533">getStatus(): InvoiceBucketStatusEnum</text><ellipse cx="18" cy="429.0703" fill="#84BE84" rx="3" ry="3" style="stroke: #038048; stroke-width: 1.0;"/><text fill="#000000" font-family="sans-serif" font-size="11" lengthAdjust="spacingAndGlyphs" textLength="208" x="27" y="433.4893">setStatus(InvoiceBucketStatusEnum): void</text><ellipse cx="18" cy="442.9063" fill="#84BE84" rx="3" ry="3" style="stroke: #038048; stroke-width: 1.0;"/><text fill="#000000" font-family="sans-serif" font-size="11" lengthAdjust="spacingAndGlyphs" textLength="126" x="27" y="447.3252">isPreviewMode(): boolean</text><ellipse cx="18" cy="456.7422" fill="#84BE84" rx="3" ry="3" style="stroke: #038048; stroke-width: 1.0;"/><text fill="#000000" font-family="sans-serif" font-size="11" lengthAdjust="spacingAndGlyphs" textLength="153" x="27" y="461.1611">setPreviewMode(boolean): void</text></a><!--MD5=[f7835cdcdda3ca02b50e6ab63395f5c4]
class com.dxc.dcmp.invcontroller.domain.AbstractEntityModel--><a href="AbstractEntityModel.html" target="_top" title="AbstractEntityModel.html" xlink:actuate="onRequest" xlink:href="AbstractEntityModel.html" xlink:show="new" xlink:title="AbstractEntityModel.html" xlink:type="simple"><rect codeLine="30" fill="#FEFECE" filter="url(#f1kj0ye7zspomc)" height="40.1875" id="com.dxc.dcmp.invcontroller.domain.AbstractEntityModel" style="stroke: #A80036; stroke-width: 1.5;" width="193" x="187.5" y="7"/><ellipse cx="202.5" cy="27.0938" fill="#A9DCDF" rx="11" ry="11" style="stroke: #A80036; stroke-width: 1.0;"/><path d="M204.6875,28.8594 L200.5469,28.8594 L200.125,29.8906 L200.5469,29.8906 Q201.1563,29.8906 201.4219,30.125 Q201.6875,30.3594 201.6875,30.75 Q201.6875,31.125 201.4219,31.3594 Q201.1563,31.5938 200.5469,31.5938 L198.25,31.5938 Q197.6406,31.5938 197.3906,31.3594 Q197.125,31.125 197.125,30.7344 Q197.125,30.3594 197.4063,30.125 Q197.6719,29.875 198.2969,29.8906 L200.9688,23.2344 L199.8594,23.2344 Q199.25,23.2344 198.9844,23 Q198.7188,22.7656 198.7188,22.375 Q198.7188,22 198.9844,21.7656 Q199.25,21.5313 199.8594,21.5313 L203.5313,21.5313 L206.9219,29.8906 Q207.5156,29.8906 207.7031,30.0313 Q208.0938,30.2969 208.0938,30.75 Q208.0938,31.125 207.8281,31.3594 Q207.5781,31.5938 206.9688,31.5938 L204.6719,31.5938 Q204.0625,31.5938 203.7969,31.3594 Q203.5313,31.125 203.5313,30.7344 Q203.5313,30.3594 203.7969,30.125 Q204.0625,29.8906 204.6719,29.8906 L205.0938,29.8906 L204.6875,28.8594 Z M203.9688,27.1563 L202.6094,23.7813 L201.2344,27.1563 L203.9688,27.1563 Z "/><text fill="#000000" font-family="sans-serif" font-size="14" font-style="italic" lengthAdjust="spacingAndGlyphs" textLength="126" x="234" y="26.5332">AbstractEntityModel</text><text fill="#000000" font-family="sans-serif" font-size="10" font-style="italic" lengthAdjust="spacingAndGlyphs" textLength="161" x="216.5" y="39.9902">com.dxc.dcmp.invcontroller.domain</text></a><!--MD5=[ed8ca7478fa93134920fd47788f7ff01]
reverse link com.dxc.dcmp.invcontroller.domain.AbstractEntityModel to com.dxc.dcmp.invcontroller.domain.InvoiceBucketModel--><path codeLine="32" d="M284,67.28 C284,78.89 284,92.42 284,106.96 " fill="none" id="com.dxc.dcmp.invcontroller.domain.AbstractEntityModel-backto-com.dxc.dcmp.invcontroller.domain.InvoiceBucketModel" style="stroke: #A80036; stroke-width: 1.0;"/><polygon fill="none" points="277,67.01,284,47.01,291,67.01,277,67.01" style="stroke: #A80036; stroke-width: 1.0;"/><text fill="#888888" font-family="sans-serif" font-size="10" lengthAdjust="spacingAndGlyphs" textLength="185" x="188.5" y="490.959">UMLDoclet 2.0.12, PlantUML 1.2020.16</text><!--MD5=[8a3cdfb1e7a463a5ea7c93b1afb00a6a]
@startuml
    set namespaceSeparator none
    hide empty fields
    hide empty methods

    class "<size:14>InvoiceBucketModel\n<size:10>com.dxc.dcmp.invcontroller.domain" as com.dxc.dcmp.invcontroller.domain.InvoiceBucketModel [[InvoiceBucketModel.html]] {
        -invoiceBucketId: String
        -status: InvoiceBucketStatusEnum
        -bucketFailureReason: String
        -invoiceRun: InvoiceRunModel
        -previewMode: boolean
        -payerList: Set<PayerModel>
        +InvoiceBucketModel()
        +InvoiceBucketModel(String, InvoiceBucketStatusEnum, InvoiceRunModel, boolean, Set<PayerModel>)
        +InvoiceBucketModel(String, InvoiceBucketStatusEnum, String, InvoiceRunModel, boolean, Set<PayerModel>)
        +getBucketFailureReason(): String
        +setBucketFailureReason(String): void
        +getInvoiceBucketId(): String
        +setInvoiceBucketId(String): void
        +getInvoiceRun(): InvoiceRunModel
        +setInvoiceRun(InvoiceRunModel): void
        +getPayerList(): Set<PayerModel>
        +addPayer(PayerModel): void
        +removePayer(PayerModel): void
        +getStatus(): InvoiceBucketStatusEnum
        +setStatus(InvoiceBucketStatusEnum): void
        +isPreviewMode(): boolean
        +setPreviewMode(boolean): void
    }

    abstract class "<size:14>AbstractEntityModel\n<size:10>com.dxc.dcmp.invcontroller.domain" as com.dxc.dcmp.invcontroller.domain.AbstractEntityModel [[AbstractEntityModel.html]]

    com.dxc.dcmp.invcontroller.domain.AbstractEntityModel <|- - com.dxc.dcmp.invcontroller.domain.InvoiceBucketModel

    center footer UMLDoclet 2.0.12, PlantUML 1.2020.16
@enduml

PlantUML version 1.2020.16(Sun Aug 23 22:20:43 EET 2020)
(APACHE source distribution)
Java Runtime: OpenJDK Runtime Environment
JVM: OpenJDK 64-Bit Server VM
Default Encoding: Cp1252
Language: en
Country: US
--></g></svg>