<?xml version="1.0" encoding="UTF-8" standalone="no"?><svg xmlns="http://www.w3.org/2000/svg" xmlns:xlink="http://www.w3.org/1999/xlink" contentScriptType="application/ecmascript" contentStyleType="text/css" height="526px" preserveAspectRatio="none" style="width:447px;height:526px;" version="1.1" viewBox="0 0 447 526" width="447px" zoomAndPan="magnify"><defs><filter height="300%" id="fdhrxc2oer267" width="300%" x="-1" y="-1"><feGaussianBlur result="blurOut" stdDeviation="2.0"/><feColorMatrix in="blurOut" result="blurOut2" type="matrix" values="0 0 0 0 0 0 0 0 0 0 0 0 0 0 0 0 0 0 .4 0"/><feOffset dx="4.0" dy="4.0" in="blurOut2" result="blurOut3"/><feBlend in="SourceGraphic" in2="blurOut3" mode="normal"/></filter></defs><g><!--MD5=[e6e2af2897ec08aeb1d8308319bff696]
class com.dxc.dcmp.invcontroller.domain.PayerModel--><a href="PayerModel.html" target="_top" title="PayerModel.html" xlink:actuate="onRequest" xlink:href="PayerModel.html" xlink:show="new" xlink:title="PayerModel.html" xlink:type="simple"><rect codeLine="5" fill="#FEFECE" filter="url(#fdhrxc2oer267)" height="346.7422" id="com.dxc.dcmp.invcontroller.domain.PayerModel" style="stroke: #A80036; stroke-width: 1.5;" width="242" x="96.5" y="143"/><ellipse cx="133.55" cy="163.0938" fill="#ADD1B2" rx="11" ry="11" style="stroke: #A80036; stroke-width: 1.0;"/><path d="M136.3156,158.9688 Q136.4719,158.75 136.6594,158.6406 Q136.8469,158.5313 137.0656,158.5313 Q137.4406,158.5313 137.675,158.7969 Q137.9094,159.0469 137.9094,159.6563 L137.9094,161.1094 Q137.9094,161.7188 137.675,161.9844 Q137.4406,162.25 137.0656,162.25 Q136.7219,162.25 136.5188,162.0469 Q136.3156,161.8594 136.2063,161.3438 Q136.1594,160.9844 135.9719,160.7969 Q135.6438,160.4219 135.0344,160.2031 Q134.425,159.9844 133.8,159.9844 Q133.0344,159.9844 132.3938,160.3125 Q131.7688,160.6406 131.2688,161.3906 Q130.7844,162.1406 130.7844,163.1719 L130.7844,164.2656 Q130.7844,165.5 131.675,166.3281 Q132.5656,167.1406 134.1594,167.1406 Q135.0969,167.1406 135.7531,166.8906 Q136.1438,166.7344 136.5656,166.2969 Q136.8313,166.0313 136.9719,165.9531 Q137.1281,165.875 137.3313,165.875 Q137.6594,165.875 137.9094,166.1406 Q138.175,166.3906 138.175,166.7344 Q138.175,167.0781 137.8313,167.4844 Q137.3313,168.0625 136.5344,168.3906 Q135.4563,168.8438 134.1594,168.8438 Q132.6438,168.8438 131.4406,168.2188 Q130.4563,167.7188 129.7688,166.6563 Q129.0813,165.5781 129.0813,164.2969 L129.0813,163.1406 Q129.0813,161.8125 129.6906,160.6719 Q130.3156,159.5156 131.4094,158.9063 Q132.5031,158.2813 133.7375,158.2813 Q134.4719,158.2813 135.1125,158.4531 Q135.7688,158.6094 136.3156,158.9688 Z "/><text fill="#000000" font-family="sans-serif" font-size="14" lengthAdjust="spacingAndGlyphs" textLength="76" x="194.95" y="162.5332">PayerModel</text><text fill="#000000" font-family="sans-serif" font-size="10" lengthAdjust="spacingAndGlyphs" textLength="161" x="152.45" y="175.9902">com.dxc.dcmp.invcontroller.domain</text><line style="stroke: #A80036; stroke-width: 1.5;" x1="97.5" x2="337.5" y1="183.1875" y2="183.1875"/><rect fill="none" height="6" style="stroke: #C82930; stroke-width: 1.0;" width="6" x="104.5" y="191.1875"/><text fill="#000000" font-family="sans-serif" font-size="11" lengthAdjust="spacingAndGlyphs" textLength="38" x="116.5" y="198.6064">id: Long</text><rect fill="none" height="6" style="stroke: #C82930; stroke-width: 1.0;" width="6" x="104.5" y="205.0234"/><text fill="#000000" font-family="sans-serif" font-size="11" lengthAdjust="spacingAndGlyphs" textLength="103" x="116.5" y="212.4424">payerIdentifier: String</text><rect fill="none" height="6" style="stroke: #C82930; stroke-width: 1.0;" width="6" x="104.5" y="218.8594"/><text fill="#000000" font-family="sans-serif" font-size="11" lengthAdjust="spacingAndGlyphs" textLength="87" x="116.5" y="226.2783">payerType: String</text><rect fill="none" height="6" style="stroke: #C82930; stroke-width: 1.0;" width="6" x="104.5" y="232.6953"/><text fill="#000000" font-family="sans-serif" font-size="11" lengthAdjust="spacingAndGlyphs" textLength="172" x="116.5" y="240.1143">invoiceBucket: InvoiceBucketModel</text><rect fill="none" height="6" style="stroke: #C82930; stroke-width: 1.0;" width="6" x="104.5" y="246.5313"/><text fill="#000000" font-family="sans-serif" font-size="11" lengthAdjust="spacingAndGlyphs" textLength="144" x="116.5" y="253.9502">invoiceRun: InvoiceRunModel</text><rect fill="none" height="6" style="stroke: #C82930; stroke-width: 1.0;" width="6" x="104.5" y="260.3672"/><text fill="#000000" font-family="sans-serif" font-size="11" lengthAdjust="spacingAndGlyphs" textLength="136" x="116.5" y="267.7861">buyerSet: Set&lt;BuyerModel&gt;</text><line style="stroke: #A80036; stroke-width: 1.5;" x1="97.5" x2="337.5" y1="274.2031" y2="274.2031"/><ellipse cx="107.5" cy="285.2031" fill="#84BE84" rx="3" ry="3" style="stroke: #038048; stroke-width: 1.0;"/><text fill="#000000" font-family="sans-serif" font-size="11" lengthAdjust="spacingAndGlyphs" textLength="62" x="116.5" y="289.6221">getId(): Long</text><ellipse cx="107.5" cy="299.0391" fill="#84BE84" rx="3" ry="3" style="stroke: #038048; stroke-width: 1.0;"/><text fill="#000000" font-family="sans-serif" font-size="11" lengthAdjust="spacingAndGlyphs" textLength="82" x="116.5" y="303.458">setId(Long): void</text><ellipse cx="107.5" cy="312.875" fill="#84BE84" rx="3" ry="3" style="stroke: #038048; stroke-width: 1.0;"/><text fill="#000000" font-family="sans-serif" font-size="11" lengthAdjust="spacingAndGlyphs" textLength="127" x="116.5" y="317.2939">getPayerIdentifier(): String</text><ellipse cx="107.5" cy="326.7109" fill="#84BE84" rx="3" ry="3" style="stroke: #038048; stroke-width: 1.0;"/><text fill="#000000" font-family="sans-serif" font-size="11" lengthAdjust="spacingAndGlyphs" textLength="147" x="116.5" y="331.1299">setPayerIdentifier(String): void</text><ellipse cx="107.5" cy="340.5469" fill="#84BE84" rx="3" ry="3" style="stroke: #038048; stroke-width: 1.0;"/><text fill="#000000" font-family="sans-serif" font-size="11" lengthAdjust="spacingAndGlyphs" textLength="111" x="116.5" y="344.9658">getPayerType(): String</text><ellipse cx="107.5" cy="354.3828" fill="#84BE84" rx="3" ry="3" style="stroke: #038048; stroke-width: 1.0;"/><text fill="#000000" font-family="sans-serif" font-size="11" lengthAdjust="spacingAndGlyphs" textLength="131" x="116.5" y="358.8018">setPayerType(String): void</text><ellipse cx="107.5" cy="368.2188" fill="#84BE84" rx="3" ry="3" style="stroke: #038048; stroke-width: 1.0;"/><text fill="#000000" font-family="sans-serif" font-size="11" lengthAdjust="spacingAndGlyphs" textLength="196" x="116.5" y="372.6377">getInvoiceBucket(): InvoiceBucketModel</text><ellipse cx="107.5" cy="382.0547" fill="#84BE84" rx="3" ry="3" style="stroke: #038048; stroke-width: 1.0;"/><text fill="#000000" font-family="sans-serif" font-size="11" lengthAdjust="spacingAndGlyphs" textLength="216" x="116.5" y="386.4736">setInvoiceBucket(InvoiceBucketModel): void</text><ellipse cx="107.5" cy="395.8906" fill="#84BE84" rx="3" ry="3" style="stroke: #038048; stroke-width: 1.0;"/><text fill="#000000" font-family="sans-serif" font-size="11" lengthAdjust="spacingAndGlyphs" textLength="168" x="116.5" y="400.3096">getInvoiceRun(): InvoiceRunModel</text><ellipse cx="107.5" cy="409.7266" fill="#84BE84" rx="3" ry="3" style="stroke: #038048; stroke-width: 1.0;"/><text fill="#000000" font-family="sans-serif" font-size="11" lengthAdjust="spacingAndGlyphs" textLength="188" x="116.5" y="414.1455">setInvoiceRun(InvoiceRunModel): void</text><ellipse cx="107.5" cy="423.5625" fill="#84BE84" rx="3" ry="3" style="stroke: #038048; stroke-width: 1.0;"/><text fill="#000000" font-family="sans-serif" font-size="11" lengthAdjust="spacingAndGlyphs" textLength="160" x="116.5" y="427.9814">getBuyerSet(): Set&lt;BuyerModel&gt;</text><ellipse cx="107.5" cy="437.3984" fill="#84BE84" rx="3" ry="3" style="stroke: #038048; stroke-width: 1.0;"/><text fill="#000000" font-family="sans-serif" font-size="11" lengthAdjust="spacingAndGlyphs" textLength="180" x="116.5" y="441.8174">setBuyerSet(Set&lt;BuyerModel&gt;): void</text><ellipse cx="107.5" cy="451.2344" fill="#84BE84" rx="3" ry="3" style="stroke: #038048; stroke-width: 1.0;"/><text fill="#000000" font-family="sans-serif" font-size="11" lengthAdjust="spacingAndGlyphs" textLength="139" x="116.5" y="455.6533">addBuyer(BuyerModel): void</text><ellipse cx="107.5" cy="465.0703" fill="#84BE84" rx="3" ry="3" style="stroke: #038048; stroke-width: 1.0;"/><text fill="#000000" font-family="sans-serif" font-size="11" lengthAdjust="spacingAndGlyphs" textLength="158" x="116.5" y="469.4893">removeBuyer(BuyerModel): void</text><ellipse cx="107.5" cy="478.9063" fill="#84BE84" rx="3" ry="3" style="stroke: #038048; stroke-width: 1.0;"/><text fill="#000000" font-family="sans-serif" font-size="11" lengthAdjust="spacingAndGlyphs" textLength="216" x="116.5" y="483.3252">calculateTotalNumberOfTransactions(): long</text></a><!--MD5=[f7835cdcdda3ca02b50e6ab63395f5c4]
class com.dxc.dcmp.invcontroller.domain.AbstractEntityModel--><a href="AbstractEntityModel.html" target="_top" title="AbstractEntityModel.html" xlink:actuate="onRequest" xlink:href="AbstractEntityModel.html" xlink:show="new" xlink:title="AbstractEntityModel.html" xlink:type="simple"><rect codeLine="29" fill="#FEFECE" filter="url(#fdhrxc2oer267)" height="40.1875" id="com.dxc.dcmp.invcontroller.domain.AbstractEntityModel" style="stroke: #A80036; stroke-width: 1.5;" width="193" x="7" y="25"/><ellipse cx="22" cy="45.0938" fill="#A9DCDF" rx="11" ry="11" style="stroke: #A80036; stroke-width: 1.0;"/><path d="M24.1875,46.8594 L20.0469,46.8594 L19.625,47.8906 L20.0469,47.8906 Q20.6563,47.8906 20.9219,48.125 Q21.1875,48.3594 21.1875,48.75 Q21.1875,49.125 20.9219,49.3594 Q20.6563,49.5938 20.0469,49.5938 L17.75,49.5938 Q17.1406,49.5938 16.8906,49.3594 Q16.625,49.125 16.625,48.7344 Q16.625,48.3594 16.9063,48.125 Q17.1719,47.875 17.7969,47.8906 L20.4688,41.2344 L19.3594,41.2344 Q18.75,41.2344 18.4844,41 Q18.2188,40.7656 18.2188,40.375 Q18.2188,40 18.4844,39.7656 Q18.75,39.5313 19.3594,39.5313 L23.0313,39.5313 L26.4219,47.8906 Q27.0156,47.8906 27.2031,48.0313 Q27.5938,48.2969 27.5938,48.75 Q27.5938,49.125 27.3281,49.3594 Q27.0781,49.5938 26.4688,49.5938 L24.1719,49.5938 Q23.5625,49.5938 23.2969,49.3594 Q23.0313,49.125 23.0313,48.7344 Q23.0313,48.3594 23.2969,48.125 Q23.5625,47.8906 24.1719,47.8906 L24.5938,47.8906 L24.1875,46.8594 Z M23.4688,45.1563 L22.1094,41.7813 L20.7344,45.1563 L23.4688,45.1563 Z "/><text fill="#000000" font-family="sans-serif" font-size="14" font-style="italic" lengthAdjust="spacingAndGlyphs" textLength="126" x="53.5" y="44.5332">AbstractEntityModel</text><text fill="#000000" font-family="sans-serif" font-size="10" font-style="italic" lengthAdjust="spacingAndGlyphs" textLength="161" x="36" y="57.9902">com.dxc.dcmp.invcontroller.domain</text></a><!--MD5=[508a5fb2974ab154d77133528b719e45]
class com.dxc.dcmp.invcontroller.domain.Identifiable--><a href="Identifiable.html" target="_top" title="Identifiable.html" xlink:actuate="onRequest" xlink:href="Identifiable.html" xlink:show="new" xlink:title="Identifiable.html" xlink:type="simple"><rect codeLine="30" fill="#FEFECE" filter="url(#fdhrxc2oer267)" height="75.8594" id="com.dxc.dcmp.invcontroller.domain.Identifiable" style="stroke: #A80036; stroke-width: 1.5;" width="193" x="235" y="7"/><ellipse cx="250" cy="27.0938" fill="#B4A7E5" rx="11" ry="11" style="stroke: #A80036; stroke-width: 1.0;"/><path d="M250.9531,23.7344 L250.9531,30.3906 L252.6719,30.3906 Q253.2813,30.3906 253.5469,30.625 Q253.8125,30.8594 253.8125,31.25 Q253.8125,31.625 253.5469,31.8594 Q253.2813,32.0938 252.6719,32.0938 L247.5313,32.0938 Q246.9219,32.0938 246.6563,31.8594 Q246.3906,31.625 246.3906,31.2344 Q246.3906,30.8594 246.6563,30.625 Q246.9219,30.3906 247.5313,30.3906 L249.25,30.3906 L249.25,23.7344 L247.5313,23.7344 Q246.9219,23.7344 246.6563,23.5 Q246.3906,23.2656 246.3906,22.875 Q246.3906,22.5 246.6563,22.2656 Q246.9219,22.0313 247.5313,22.0313 L252.6719,22.0313 Q253.2813,22.0313 253.5469,22.2656 Q253.8125,22.5 253.8125,22.875 Q253.8125,23.2656 253.5469,23.5 Q253.2813,23.7344 252.6719,23.7344 L250.9531,23.7344 Z "/><text fill="#000000" font-family="sans-serif" font-size="14" font-style="italic" lengthAdjust="spacingAndGlyphs" textLength="69" x="310" y="26.5332">Identifiable</text><text fill="#000000" font-family="sans-serif" font-size="10" font-style="italic" lengthAdjust="spacingAndGlyphs" textLength="161" x="264" y="39.9902">com.dxc.dcmp.invcontroller.domain</text><line style="stroke: #A80036; stroke-width: 1.5;" x1="236" x2="427" y1="47.1875" y2="47.1875"/><ellipse cx="246" cy="58.1875" fill="#84BE84" rx="3" ry="3" style="stroke: #038048; stroke-width: 1.0;"/><text fill="#000000" font-family="sans-serif" font-size="11" font-style="italic" lengthAdjust="spacingAndGlyphs" textLength="62" x="255" y="62.6064">getId(): Long</text><ellipse cx="246" cy="72.0234" fill="#84BE84" rx="3" ry="3" style="stroke: #038048; stroke-width: 1.0;"/><text fill="#000000" font-family="sans-serif" font-size="11" font-style="italic" lengthAdjust="spacingAndGlyphs" textLength="82" x="255" y="76.4424">setId(Long): void</text></a><!--MD5=[d93734b0cd3a1ae5645d452df392a829]
reverse link com.dxc.dcmp.invcontroller.domain.AbstractEntityModel to com.dxc.dcmp.invcontroller.domain.PayerModel--><path codeLine="35" d="M119.5,83.82 C126.45,100.25 135.13,120.77 144.43,142.76 " fill="none" id="com.dxc.dcmp.invcontroller.domain.AbstractEntityModel-backto-com.dxc.dcmp.invcontroller.domain.PayerModel" style="stroke: #A80036; stroke-width: 1.0;"/><polygon fill="none" points="113.04,86.53,111.7,65.38,125.94,81.07,113.04,86.53" style="stroke: #A80036; stroke-width: 1.0;"/><!--MD5=[d019085e3a64be7d8a8b1c4e28af314d]
reverse link com.dxc.dcmp.invcontroller.domain.Identifiable to com.dxc.dcmp.invcontroller.domain.PayerModel--><path codeLine="36" d="M307.97,101.63 C302.66,114.17 296.76,128.13 290.58,142.74 " fill="none" id="com.dxc.dcmp.invcontroller.domain.Identifiable-backto-com.dxc.dcmp.invcontroller.domain.PayerModel" style="stroke: #A80036; stroke-width: 1.0; stroke-dasharray: 7.0,7.0;"/><polygon fill="none" points="301.53,98.88,315.77,83.19,314.42,104.34,301.53,98.88" style="stroke: #A80036; stroke-width: 1.0;"/><text fill="#888888" font-family="sans-serif" font-size="10" lengthAdjust="spacingAndGlyphs" textLength="185" x="122" y="513.123">UMLDoclet 2.0.12, PlantUML 1.2020.16</text><!--MD5=[de6ac385700a97d674c6745781fa689a]
@startuml
    set namespaceSeparator none
    hide empty fields
    hide empty methods

    class "<size:14>PayerModel\n<size:10>com.dxc.dcmp.invcontroller.domain" as com.dxc.dcmp.invcontroller.domain.PayerModel [[PayerModel.html]] {
        -id: Long
        -payerIdentifier: String
        -payerType: String
        -invoiceBucket: InvoiceBucketModel
        -invoiceRun: InvoiceRunModel
        -buyerSet: Set<BuyerModel>
        +getId(): Long
        +setId(Long): void
        +getPayerIdentifier(): String
        +setPayerIdentifier(String): void
        +getPayerType(): String
        +setPayerType(String): void
        +getInvoiceBucket(): InvoiceBucketModel
        +setInvoiceBucket(InvoiceBucketModel): void
        +getInvoiceRun(): InvoiceRunModel
        +setInvoiceRun(InvoiceRunModel): void
        +getBuyerSet(): Set<BuyerModel>
        +setBuyerSet(Set<BuyerModel>): void
        +addBuyer(BuyerModel): void
        +removeBuyer(BuyerModel): void
        +calculateTotalNumberOfTransactions(): long
    }

    abstract class "<size:14>AbstractEntityModel\n<size:10>com.dxc.dcmp.invcontroller.domain" as com.dxc.dcmp.invcontroller.domain.AbstractEntityModel [[AbstractEntityModel.html]]
    interface "<size:14>Identifiable\n<size:10>com.dxc.dcmp.invcontroller.domain" as com.dxc.dcmp.invcontroller.domain.Identifiable [[Identifiable.html]] {
        {abstract} +getId(): Long
        {abstract} +setId(Long): void
    }

    com.dxc.dcmp.invcontroller.domain.AbstractEntityModel <|- - com.dxc.dcmp.invcontroller.domain.PayerModel
    com.dxc.dcmp.invcontroller.domain.Identifiable <|.. com.dxc.dcmp.invcontroller.domain.PayerModel

    center footer UMLDoclet 2.0.12, PlantUML 1.2020.16
@enduml

PlantUML version 1.2020.16(Sun Aug 23 22:20:43 EET 2020)
(APACHE source distribution)
Java Runtime: OpenJDK Runtime Environment
JVM: OpenJDK 64-Bit Server VM
Default Encoding: Cp1252
Language: en
Country: US
--></g></svg>