<?xml version="1.0" encoding="UTF-8" standalone="no"?><svg xmlns="http://www.w3.org/2000/svg" xmlns:xlink="http://www.w3.org/1999/xlink" contentScriptType="application/ecmascript" contentStyleType="text/css" height="481px" preserveAspectRatio="none" style="width:327px;height:481px;" version="1.1" viewBox="0 0 327 481" width="327px" zoomAndPan="magnify"><defs><filter height="300%" id="f1etkebanxzuoh" width="300%" x="-1" y="-1"><feGaussianBlur result="blurOut" stdDeviation="2.0"/><feColorMatrix in="blurOut" result="blurOut2" type="matrix" values="0 0 0 0 0 0 0 0 0 0 0 0 0 0 0 0 0 0 .4 0"/><feOffset dx="4.0" dy="4.0" in="blurOut2" result="blurOut3"/><feBlend in="SourceGraphic" in2="blurOut3" mode="normal"/></filter></defs><g><!--MD5=[0ad633c43f2dd0a8a33bf75314d4dc7f]
class com.dxc.dcmp.invcontroller.domain.StatusCodeEnum--><a href="StatusCodeEnum.html" target="_top" title="StatusCodeEnum.html" xlink:actuate="onRequest" xlink:href="StatusCodeEnum.html" xlink:show="new" xlink:title="StatusCodeEnum.html" xlink:type="simple"><rect codeLine="5" fill="#FEFECE" filter="url(#f1etkebanxzuoh)" height="443.5938" id="com.dxc.dcmp.invcontroller.domain.StatusCodeEnum" style="stroke: #A80036; stroke-width: 1.5;" width="301" x="7" y="7"/><ellipse cx="72.75" cy="27.0938" fill="#EB937F" rx="11" ry="11" style="stroke: #A80036; stroke-width: 1.0;"/><path d="M71.6094,27.8906 L71.6094,30.3906 L75.9375,30.3906 L75.9375,29.4688 Q75.9375,28.8594 76.1719,28.5938 Q76.4219,28.3281 76.7969,28.3281 Q77.1719,28.3281 77.4063,28.5938 Q77.6406,28.8594 77.6406,29.4688 L77.6406,32.0938 L69.6406,32.0938 Q69.0156,32.0938 68.75,31.8594 Q68.5,31.625 68.5,31.2344 Q68.5,30.8594 68.7656,30.625 Q69.0313,30.3906 69.6406,30.3906 L69.9063,30.3906 L69.9063,23.7344 L69.6406,23.7344 Q69.0156,23.7344 68.75,23.5 Q68.5,23.2656 68.5,22.875 Q68.5,22.5 68.75,22.2656 Q69.0156,22.0313 69.6406,22.0313 L77.2656,22.0313 L77.2656,24.625 Q77.2656,25.2344 77.0313,25.5 Q76.8125,25.75 76.4219,25.75 Q76.0469,25.75 75.8125,25.5 Q75.5781,25.2344 75.5781,24.625 L75.5781,23.7344 L71.6094,23.7344 L71.6094,26.1875 L73.0938,26.1875 Q73.0938,25.5313 73.2188,25.3438 Q73.4844,24.9375 73.9531,24.9375 Q74.3281,24.9375 74.5625,25.2031 Q74.7969,25.4531 74.7969,26.0625 L74.7969,28.0313 Q74.7969,28.5781 74.6719,28.7656 Q74.4063,29.1563 73.9531,29.1563 Q73.4844,29.1563 73.2188,28.75 Q73.0938,28.5625 73.0938,27.8906 L71.6094,27.8906 Z "/><text fill="#000000" font-family="sans-serif" font-size="14" lengthAdjust="spacingAndGlyphs" textLength="111" x="118.25" y="26.5332">StatusCodeEnum</text><text fill="#000000" font-family="sans-serif" font-size="10" lengthAdjust="spacingAndGlyphs" textLength="161" x="93.25" y="39.9902">com.dxc.dcmp.invcontroller.domain</text><line style="stroke: #A80036; stroke-width: 1.5;" x1="8" x2="307" y1="47.1875" y2="47.1875"/><ellipse cx="18" cy="58.1875" fill="none" rx="3" ry="3" style="stroke: #038048; stroke-width: 1.0;"/><text fill="#000000" font-family="sans-serif" font-size="11" lengthAdjust="spacingAndGlyphs" text-decoration="underline" textLength="166" x="27" y="62.6064">INVALID_INVOICERUN_STATUS</text><ellipse cx="18" cy="72.0234" fill="none" rx="3" ry="3" style="stroke: #038048; stroke-width: 1.0;"/><text fill="#000000" font-family="sans-serif" font-size="11" lengthAdjust="spacingAndGlyphs" text-decoration="underline" textLength="182" x="27" y="76.4424">REQUIRED_INVOICERUN_STATUS</text><ellipse cx="18" cy="85.8594" fill="none" rx="3" ry="3" style="stroke: #038048; stroke-width: 1.0;"/><text fill="#000000" font-family="sans-serif" font-size="11" lengthAdjust="spacingAndGlyphs" text-decoration="underline" textLength="139" x="27" y="90.2783">INVOICERUN_NOTFOUND</text><ellipse cx="18" cy="99.6953" fill="none" rx="3" ry="3" style="stroke: #038048; stroke-width: 1.0;"/><text fill="#000000" font-family="sans-serif" font-size="11" lengthAdjust="spacingAndGlyphs" text-decoration="underline" textLength="144" x="27" y="104.1143">STEP_EXECUTION_ERROR</text><ellipse cx="18" cy="113.5313" fill="none" rx="3" ry="3" style="stroke: #038048; stroke-width: 1.0;"/><text fill="#000000" font-family="sans-serif" font-size="11" lengthAdjust="spacingAndGlyphs" text-decoration="underline" textLength="237" x="27" y="117.9502">BINPACKING_ITEM_EXCEED_MAXIMUM_SIZE</text><ellipse cx="18" cy="127.3672" fill="none" rx="3" ry="3" style="stroke: #038048; stroke-width: 1.0;"/><text fill="#000000" font-family="sans-serif" font-size="11" lengthAdjust="spacingAndGlyphs" text-decoration="underline" textLength="194" x="27" y="131.7861">BINPACKING_DETERMINE_BUCKETS</text><ellipse cx="18" cy="141.2031" fill="none" rx="3" ry="3" style="stroke: #038048; stroke-width: 1.0;"/><text fill="#000000" font-family="sans-serif" font-size="11" lengthAdjust="spacingAndGlyphs" text-decoration="underline" textLength="115" x="27" y="145.6221">JOB_ALREADY_EXIST</text><ellipse cx="18" cy="155.0391" fill="none" rx="3" ry="3" style="stroke: #038048; stroke-width: 1.0;"/><text fill="#000000" font-family="sans-serif" font-size="11" lengthAdjust="spacingAndGlyphs" text-decoration="underline" textLength="138" x="27" y="159.458">JOB_EXECUTION_ERROR</text><ellipse cx="18" cy="168.875" fill="none" rx="3" ry="3" style="stroke: #038048; stroke-width: 1.0;"/><text fill="#000000" font-family="sans-serif" font-size="11" lengthAdjust="spacingAndGlyphs" text-decoration="underline" textLength="127" x="27" y="173.2939">JSON_MAPPER_ERROR</text><ellipse cx="18" cy="182.7109" fill="none" rx="3" ry="3" style="stroke: #038048; stroke-width: 1.0;"/><text fill="#000000" font-family="sans-serif" font-size="11" lengthAdjust="spacingAndGlyphs" text-decoration="underline" textLength="212" x="27" y="187.1299">INVOICERUN_NOTFOUND_FROM_STEP</text><ellipse cx="18" cy="196.5469" fill="none" rx="3" ry="3" style="stroke: #038048; stroke-width: 1.0;"/><text fill="#000000" font-family="sans-serif" font-size="11" lengthAdjust="spacingAndGlyphs" text-decoration="underline" textLength="223" x="27" y="200.9658">REQUIRED_INVOICERUN_PAYMENTNODE</text><ellipse cx="18" cy="210.3828" fill="none" rx="3" ry="3" style="stroke: #038048; stroke-width: 1.0;"/><text fill="#000000" font-family="sans-serif" font-size="11" lengthAdjust="spacingAndGlyphs" text-decoration="underline" textLength="207" x="27" y="214.8018">INVOICERUN_INVALID_PAYMENTNODE</text><ellipse cx="18" cy="224.2188" fill="none" rx="3" ry="3" style="stroke: #038048; stroke-width: 1.0;"/><text fill="#000000" font-family="sans-serif" font-size="11" lengthAdjust="spacingAndGlyphs" text-decoration="underline" textLength="239" x="27" y="228.6377">INVOICERUN_INVALID_ROLETYPE_PAYMENT</text><ellipse cx="18" cy="238.0547" fill="none" rx="3" ry="3" style="stroke: #038048; stroke-width: 1.0;"/><text fill="#000000" font-family="sans-serif" font-size="11" lengthAdjust="spacingAndGlyphs" text-decoration="underline" textLength="232" x="27" y="242.4736">INVOICERUN_INVALID_ROLETYPE_INVOICE</text><ellipse cx="18" cy="251.8906" fill="none" rx="3" ry="3" style="stroke: #038048; stroke-width: 1.0;"/><text fill="#000000" font-family="sans-serif" font-size="11" lengthAdjust="spacingAndGlyphs" text-decoration="underline" textLength="275" x="27" y="256.3096">INVOICERUN_INVALID_ROLETYPE_IDENTIFICATION</text><ellipse cx="18" cy="265.7266" fill="none" rx="3" ry="3" style="stroke: #038048; stroke-width: 1.0;"/><text fill="#000000" font-family="sans-serif" font-size="11" lengthAdjust="spacingAndGlyphs" text-decoration="underline" textLength="229" x="27" y="270.1455">INVOICERUN_UNSUPPORTED_PAYERTYPE</text><ellipse cx="18" cy="279.5625" fill="none" rx="3" ry="3" style="stroke: #038048; stroke-width: 1.0;"/><text fill="#000000" font-family="sans-serif" font-size="11" lengthAdjust="spacingAndGlyphs" text-decoration="underline" textLength="230" x="27" y="283.9814">INVOICERUN_UNSUPPORTED_BUYERTYPE</text><ellipse cx="18" cy="293.3984" fill="none" rx="3" ry="3" style="stroke: #038048; stroke-width: 1.0;"/><text fill="#000000" font-family="sans-serif" font-size="11" lengthAdjust="spacingAndGlyphs" text-decoration="underline" textLength="242" x="27" y="297.8174">INVOICE_CONFIRM_UNSUPPORTED_STATUS</text><ellipse cx="18" cy="307.2344" fill="none" rx="3" ry="3" style="stroke: #038048; stroke-width: 1.0;"/><text fill="#000000" font-family="sans-serif" font-size="11" lengthAdjust="spacingAndGlyphs" text-decoration="underline" textLength="248" x="27" y="311.6533">INVOICE_ROLLBACK_UNSUPPORTED_STATUS</text><ellipse cx="18" cy="321.0703" fill="none" rx="3" ry="3" style="stroke: #038048; stroke-width: 1.0;"/><text fill="#000000" font-family="sans-serif" font-size="11" lengthAdjust="spacingAndGlyphs" text-decoration="underline" textLength="137" x="27" y="325.4893">INVALID_SYNTAX_ERROR</text><ellipse cx="18" cy="334.9063" fill="none" rx="3" ry="3" style="stroke: #038048; stroke-width: 1.0;"/><text fill="#000000" font-family="sans-serif" font-size="11" lengthAdjust="spacingAndGlyphs" text-decoration="underline" textLength="179" x="27" y="339.3252">INVOICERUN_ROLLBACK_ERROR</text><ellipse cx="18" cy="348.7422" fill="none" rx="3" ry="3" style="stroke: #038048; stroke-width: 1.0;"/><text fill="#000000" font-family="sans-serif" font-size="11" lengthAdjust="spacingAndGlyphs" text-decoration="underline" textLength="162" x="27" y="353.1611">INVOICERUN_ALREADY_EXIST</text><rect fill="none" height="6" style="stroke: #C82930; stroke-width: 1.0;" width="6" x="15" y="359.5781"/><text fill="#000000" font-family="sans-serif" font-size="11" lengthAdjust="spacingAndGlyphs" textLength="90" x="27" y="366.9971">statusCode: String</text><rect fill="none" height="6" style="stroke: #C82930; stroke-width: 1.0;" width="6" x="15" y="373.4141"/><text fill="#000000" font-family="sans-serif" font-size="11" lengthAdjust="spacingAndGlyphs" textLength="109" x="27" y="380.833">statusMessage: String</text><line style="stroke: #A80036; stroke-width: 1.5;" x1="8" x2="307" y1="387.25" y2="387.25"/><rect fill="#F24D5C" height="6" style="stroke: #C82930; stroke-width: 1.0;" width="6" x="15" y="395.25"/><text fill="#000000" font-family="sans-serif" font-size="11" lengthAdjust="spacingAndGlyphs" textLength="155" x="27" y="402.6689">StatusCodeEnum(String, String)</text><rect fill="#F24D5C" height="6" style="stroke: #C82930; stroke-width: 1.0;" width="6" x="15" y="409.0859"/><text fill="#000000" font-family="sans-serif" font-size="11" lengthAdjust="spacingAndGlyphs" textLength="121" x="27" y="416.5049">StatusCodeEnum(String)</text><ellipse cx="18" cy="425.9219" fill="#84BE84" rx="3" ry="3" style="stroke: #038048; stroke-width: 1.0;"/><text fill="#000000" font-family="sans-serif" font-size="11" lengthAdjust="spacingAndGlyphs" textLength="114" x="27" y="430.3408">getStatusCode(): String</text><ellipse cx="18" cy="439.7578" fill="#84BE84" rx="3" ry="3" style="stroke: #038048; stroke-width: 1.0;"/><text fill="#000000" font-family="sans-serif" font-size="11" lengthAdjust="spacingAndGlyphs" textLength="133" x="27" y="444.1768">getStatusMessage(): String</text></a><text fill="#888888" font-family="sans-serif" font-size="10" lengthAdjust="spacingAndGlyphs" textLength="185" x="65" y="467.9746">UMLDoclet 2.0.12, PlantUML 1.2020.16</text><!--MD5=[273acee6625eae4e6d459e35b0ff4a8b]
@startuml
    set namespaceSeparator none
    hide empty fields
    hide empty methods

    enum "<size:14>StatusCodeEnum\n<size:10>com.dxc.dcmp.invcontroller.domain" as com.dxc.dcmp.invcontroller.domain.StatusCodeEnum [[StatusCodeEnum.html]] {
        {static} +INVALID_INVOICERUN_STATUS
        {static} +REQUIRED_INVOICERUN_STATUS
        {static} +INVOICERUN_NOTFOUND
        {static} +STEP_EXECUTION_ERROR
        {static} +BINPACKING_ITEM_EXCEED_MAXIMUM_SIZE
        {static} +BINPACKING_DETERMINE_BUCKETS
        {static} +JOB_ALREADY_EXIST
        {static} +JOB_EXECUTION_ERROR
        {static} +JSON_MAPPER_ERROR
        {static} +INVOICERUN_NOTFOUND_FROM_STEP
        {static} +REQUIRED_INVOICERUN_PAYMENTNODE
        {static} +INVOICERUN_INVALID_PAYMENTNODE
        {static} +INVOICERUN_INVALID_ROLETYPE_PAYMENT
        {static} +INVOICERUN_INVALID_ROLETYPE_INVOICE
        {static} +INVOICERUN_INVALID_ROLETYPE_IDENTIFICATION
        {static} +INVOICERUN_UNSUPPORTED_PAYERTYPE
        {static} +INVOICERUN_UNSUPPORTED_BUYERTYPE
        {static} +INVOICE_CONFIRM_UNSUPPORTED_STATUS
        {static} +INVOICE_ROLLBACK_UNSUPPORTED_STATUS
        {static} +INVALID_SYNTAX_ERROR
        {static} +INVOICERUN_ROLLBACK_ERROR
        {static} +INVOICERUN_ALREADY_EXIST
        -statusCode: String
        -statusMessage: String
        -StatusCodeEnum(String, String)
        -StatusCodeEnum(String)
        +getStatusCode(): String
        +getStatusMessage(): String
    }

    center footer UMLDoclet 2.0.12, PlantUML 1.2020.16
@enduml

PlantUML version 1.2020.16(Sun Aug 23 22:20:43 EET 2020)
(APACHE source distribution)
Java Runtime: OpenJDK Runtime Environment
JVM: OpenJDK 64-Bit Server VM
Default Encoding: Cp1252
Language: en
Country: US
--></g></svg>